<svg width="1440" height="898" viewBox="0 0 1440 898" fill="none" xmlns="http://www.w3.org/2000/svg">
						<path d="M258.437 146.802C209.788 59.176 116.757 0 9.5 0C-75.5655 0 -151.812 37.2695 -203.875 96.4455C-248.257 146.517 -275 212.521 -275 284.5C-275 356.479 -248.257 422.483 -203.875 472.555C-151.812 531.731 -75.5655 569 9.5 569C116.757 569 209.788 509.824 258.437 422.198C281.197 381.515 294 334.288 294 284.5C294 234.713 281.197 187.486 258.437 146.802ZM9.5 391.188C-49.3915 391.188 -97.1875 343.392 -97.1875 284.5C-97.1875 225.609 -49.3915 177.812 9.5 177.812C68.3915 177.812 116.187 225.609 116.187 284.5C116.187 343.392 68.3915 391.188 9.5 391.188Z" fill="#1B3A72" fill-opacity="0.05"/>
						<path d="M1580.44 475.802C1531.79 388.176 1438.76 329 1331.5 329C1246.43 329 1170.19 366.269 1118.12 425.445C1073.74 475.518 1047 541.521 1047 613.5C1047 685.479 1073.74 751.483 1118.12 801.555C1170.19 860.731 1246.43 898 1331.5 898C1438.76 898 1531.79 838.824 1580.44 751.198C1603.2 710.515 1616 663.288 1616 613.5C1616 563.712 1603.2 516.486 1580.44 475.802ZM1331.5 720.188C1272.61 720.188 1224.81 672.392 1224.81 613.5C1224.81 554.608 1272.61 506.812 1331.5 506.812C1390.39 506.812 1438.19 554.608 1438.19 613.5C1438.19 672.392 1390.39 720.188 1331.5 720.188Z" fill="#4D94FF" fill-opacity="0.1"/>
						<circle cx="456.5" cy="91.5" r="7.5" fill="#FF1F1F"/>
						<circle cx="621.5" cy="204.5" r="18.5" fill="#FFAA45"/>
						<circle cx="518.5" cy="308.5" r="6.5" fill="#19CDB8"/>
					</svg>