<svg width="1183" height="128" viewBox="0 0 1183 128" fill="none" xmlns="http://www.w3.org/2000/svg">
<circle cx="897" cy="262" r="285" stroke="white" stroke-opacity="0.05" stroke-width="2"/>
<circle cx="897" cy="262" r="191" stroke="white" stroke-opacity="0.05" stroke-width="2"/>
<path d="M106.553 118.459C106.553 129.618 98.3173 139.12 87.2648 140.848C82.3525 141.64 77.368 142 72.2391 142C66.9656 142 61.7644 141.568 56.7077 140.776C45.7996 138.976 37.9255 129.474 37.9255 118.459C37.9255 111.98 44.1381 107.3 50.4951 109.028C57.4301 110.972 64.7262 111.98 72.2391 111.98C79.7519 111.98 87.1203 110.972 93.983 109.028C100.34 107.3 106.553 111.908 106.553 118.459Z" fill="white" fill-opacity="0.05"/>
<path d="M135.448 -3.85269C123.095 -26.0259 99.4731 -41 72.239 -41C50.6395 -41 31.2795 -31.5692 18.0597 -16.5951C6.79046 -3.92468 0 12.7772 0 30.9909C0 49.2046 6.79046 65.9065 18.0597 78.5769C31.2795 93.551 50.6395 102.982 72.239 102.982C99.4731 102.982 123.095 88.0077 135.448 65.8345C141.227 55.5398 144.478 43.5893 144.478 30.9909C144.478 18.3925 141.227 6.44201 135.448 -3.85269ZM72.239 57.9875C57.2855 57.9875 45.1494 45.893 45.1494 30.9909C45.1494 16.0888 57.2855 3.99432 72.239 3.99432C87.1924 3.99432 99.3286 16.0888 99.3286 30.9909C99.3286 45.893 87.1924 57.9875 72.239 57.9875Z" fill="white" fill-opacity="0.05"/>
</svg>
