<svg width="1192" height="164" viewBox="0 0 1192 164" fill="none" xmlns="http://www.w3.org/2000/svg">
<path opacity="0.04" d="M535.687 108.72C506.532 56.36 450.778 21 386.5 21C335.521 21 289.826 43.27 258.625 78.63C232.027 108.55 216 147.99 216 191C216 234.01 232.027 273.45 258.625 303.37C289.826 338.73 335.521 361 386.5 361C450.778 361 506.532 325.64 535.687 273.28C549.327 248.97 557 220.75 557 191C557 161.25 549.327 133.03 535.687 108.72ZM386.5 254.75C351.206 254.75 322.562 226.19 322.562 191C322.562 155.81 351.206 127.25 386.5 127.25C421.793 127.25 450.437 155.81 450.437 191C450.437 226.19 421.793 254.75 386.5 254.75Z" fill="white"/>
<circle cx="1234.5" cy="197.5" r="99.5" fill="#19CDB8"/>
<circle cx="-18.5" cy="-23.5" r="67.5" fill="#459BFF"/>
</svg>
