<svg width="24" height="24" viewBox="0 0 24 24" fill="none" xmlns="http://www.w3.org/2000/svg">
<g clip-path="url(#clip0)">
<path d="M27.2676 3.42871H2.33118C-0.751314 3.42871 2.33118 3.42871 -3.27344 3.42871V19.9231H27.2676V3.42871Z" fill="#273375"/>
<path d="M27.2721 10.8428V10.0283H15.7767L24.1895 3.42871H21.2003L14.1011 8.99785V3.42871H10.0844V8.92456L3.07861 3.42871H2.33137C1.67745 3.42871 1.70368 3.42871 0.00695729 3.42871L8.48889 10.0283H-3.25391V10.1703V10.7474V10.8428V12.4328V13.2473V13.248H8.67157L-0.00400162 19.9896H2.98517L10.0844 14.4205V19.9896H14.1011V14.4938L21.1069 19.9896H24.3295L15.5839 13.248H27.2603V13.2473H27.272V12.4328H27.2603V10.8428H27.2721Z" fill="white"/>
<path d="M13.0931 10.8428V10.8299V10.0283V3.42871H10.9252V10.0283V10.8207V10.8428H-3.25391V12.4328H10.0844H10.9252V12.5061V13.2473V19.9896H13.0736V13.2473V12.5061V12.4328H27.2603V10.8428H13.0931Z" fill="#E51D35"/>
<path d="M9.07437 10.0283H10.0844L1.65403 3.42871C1.13809 3.42871 1.13809 3.42871 0.742188 3.42871L9.07437 10.0283Z" fill="#E51D35"/>
<path d="M14.0273 13.2476L22.6958 19.9899H23.5365L14.9418 13.2476H14.0273Z" fill="#E51D35"/>
<path d="M0.636719 19.9899H1.57082L9.99732 13.2476H9.0648L0.636719 19.9899Z" fill="#E51D35"/>
<path d="M23.4747 3.42871C23.4747 3.42871 22.6202 3.42951 22.485 3.42871L14.0547 10.0283H15.0647L23.4747 3.42871Z" fill="#AF0026"/>
</g>
<defs>
<clipPath id="clip0">
<rect y="4" width="24" height="16" rx="3" fill="white"/>
</clipPath>
</defs>
</svg>
