<svg width="50" height="50" viewBox="0 0 50 50" fill="none" xmlns="http://www.w3.org/2000/svg">
<rect width="50" height="50" rx="25" fill="#E3EED6"/>
<g clip-path="url(#clip0)">
<path d="M33.1733 13.6001C33.6863 13.6 34.1943 13.7041 34.6683 13.9064C35.1423 14.1088 35.573 14.4054 35.9358 14.7794C36.2986 15.1534 36.5864 15.5975 36.7828 16.0862C36.9791 16.5749 37.0802 17.0987 37.0802 17.6277V32.3174C37.0802 32.8464 36.9791 33.3702 36.7828 33.8589C36.5864 34.3476 36.2986 34.7917 35.9358 35.1657C35.573 35.5397 35.1423 35.8363 34.6683 36.0387C34.1943 36.241 33.6863 36.3451 33.1733 36.345H16.406C15.3701 36.345 14.3766 35.9207 13.6441 35.1653C12.9115 34.41 12.5 33.3856 12.5 32.3174V17.6277C12.5 16.5595 12.9115 15.5351 13.6441 14.7797C14.3766 14.0244 15.3701 13.6001 16.406 13.6001H33.1733ZM33.1733 14.809H16.406C15.7069 14.809 15.0344 15.0851 14.5267 15.5806C14.0189 16.0761 13.7144 16.7532 13.6759 17.473L13.6716 17.6277V32.3174C13.6716 33.0384 13.9395 33.732 14.4202 34.2556C14.9009 34.7792 15.5579 35.093 16.256 35.1325L16.406 35.137H33.1733C33.8727 35.1372 34.5455 34.861 35.0535 34.3653C35.5615 33.8697 35.8659 33.1922 35.9043 32.4721L35.9078 32.3174V17.6277C35.9077 16.9067 35.6398 16.2131 35.1591 15.6895C34.6784 15.1659 34.0215 14.8521 33.3233 14.8125L33.1733 14.8081V14.809Z" fill="#71A832"/>
<path d="M36.2476 18.6819V19.8908H13.0175V18.6819H36.2476ZM22.0985 29.6846V28.4757L19.3235 27.0943L22.0994 25.7112V24.5228L18.0675 26.6206V27.5966L22.0985 29.6854V29.6846ZM23.5235 30.0419L26.8511 23.0143H25.7175L22.3985 30.0419H23.5235ZM27.1519 29.6846L31.183 27.5868V26.6206L27.1519 24.5228V25.7317L29.9269 27.113L27.1511 28.4952V29.6846H27.1519Z" fill="#71A832"/>
</g>
<defs>
<clipPath id="clip0">
<rect width="25" height="24" fill="white" transform="translate(12.5 13)"/>
</clipPath>
</defs>
</svg>
