<svg width="50" height="50" viewBox="0 0 50 50" fill="none" xmlns="http://www.w3.org/2000/svg">
<rect width="50" height="50" rx="25" fill="#0068B3" fill-opacity="0.2"/>
<g clip-path="url(#clip0)">
<path d="M18.7878 20.3932H31.2428V21.4312H18.7878V20.3932Z" fill="#0068B3"/>
<path d="M17.2308 30.2535C16.0845 30.2535 15.1551 29.3241 15.1551 28.1776V22.4691C15.1551 21.3225 16.0845 20.3932 17.2308 20.3932C18.3774 20.3932 19.3067 21.3225 19.3067 22.4691V28.1776C19.3067 29.3241 18.3774 30.2535 17.2308 30.2535ZM17.2308 21.4312C16.6576 21.4312 16.193 21.8959 16.193 22.4691V28.1776C16.193 28.7508 16.6576 29.2156 17.2308 29.2156C17.8042 29.2156 18.2689 28.7508 18.2689 28.1776V22.4691C18.2689 21.8959 17.8042 21.4312 17.2308 21.4312Z" fill="#0068B3"/>
<path d="M32.7994 30.2535C31.653 30.2535 30.7237 29.3241 30.7237 28.1776V22.4691C30.7237 21.3225 31.653 20.3932 32.7994 20.3932C33.946 20.3932 34.8753 21.3225 34.8753 22.4691V28.1776C34.8753 29.3241 33.946 30.2535 32.7994 30.2535ZM32.7994 21.4312C32.2262 21.4312 31.7616 21.8959 31.7616 22.4691V28.1776C31.7616 28.7508 32.2262 29.2156 32.7994 29.2156C33.3728 29.2156 33.8375 28.7508 33.8375 28.1776V22.4691C33.8375 21.8959 33.3728 21.4312 32.7994 21.4312Z" fill="#0068B3"/>
<path d="M27.61 37.0001C26.4634 37.0001 25.5341 36.0706 25.5341 34.9242V32.3295H24.4962V34.9242C24.4962 36.0706 23.5669 37.0001 22.4203 37.0001C21.274 37.0001 20.3444 36.0706 20.3444 34.9242V32.3295H19.8256C18.9656 32.3295 18.2687 31.6324 18.2687 30.7726V20.9123C18.2687 17.1864 21.2892 14.1658 25.0151 14.1658C28.7412 14.1658 31.7616 17.1864 31.7616 20.9123V30.7726C31.7616 31.6324 31.0645 32.3295 30.2047 32.3295H29.6857V34.9242C29.6857 36.0706 28.7564 37.0001 27.61 37.0001ZM23.4582 31.2914H26.5719V34.9242C26.5719 35.4974 27.0368 35.9621 27.61 35.9621C28.1832 35.9621 28.6478 35.4974 28.6478 34.9242V31.2914H30.2047C30.4913 31.2914 30.7237 31.0592 30.7237 30.7726V20.9123C30.7237 17.7596 28.168 15.2038 25.0151 15.2038C21.8623 15.2038 19.3066 17.7596 19.3066 20.9123V30.7726C19.3066 31.0592 19.539 31.2914 19.8256 31.2914H21.3825V34.9242C21.3825 35.4974 21.8471 35.9621 22.4203 35.9621C22.9935 35.9621 23.4582 35.4974 23.4582 34.9242V31.2914Z" fill="#0068B3"/>
<path d="M22.9396 18.3176C22.9396 18.031 22.7072 17.7986 22.4206 17.7986C22.1339 17.7986 21.9016 18.031 21.9016 18.3176V18.9176C21.9016 19.2042 22.1339 19.4366 22.4206 19.4366C22.7072 19.4366 22.9396 19.2042 22.9396 18.9176V18.3176Z" fill="#0068B3"/>
<path d="M28.1285 18.3175C28.1285 18.0309 27.8961 17.7986 27.6095 17.7986C27.323 17.7986 27.0906 18.0309 27.0906 18.3175V18.9177C27.0906 19.2043 27.323 19.4366 27.6095 19.4366C27.8961 19.4366 28.1285 19.2043 28.1285 18.9177V18.3175Z" fill="#0068B3"/>
<path d="M20.466 14.0247C20.3062 13.7868 20.3694 13.4645 20.6073 13.3046C20.8451 13.1447 21.1675 13.208 21.3274 13.4459L22.186 14.7236C22.3459 14.9615 22.2826 15.2839 22.0447 15.4438C21.8068 15.6036 21.4844 15.5404 21.3246 15.3025L20.466 14.0247Z" fill="#0068B3"/>
<path d="M27.9748 15.4271C27.7369 15.2671 27.6736 14.9445 27.8335 14.7066L28.6907 13.431C28.8507 13.193 29.1733 13.1297 29.4113 13.2897C29.6493 13.4496 29.7126 13.7722 29.5526 14.0102L28.6954 15.2858C28.5355 15.5238 28.2129 15.5871 27.9748 15.4271Z" fill="#0068B3"/>
</g>
<defs>
<clipPath id="clip0">
<rect width="24" height="24" fill="white" transform="translate(13 13)"/>
</clipPath>
</defs>
</svg>
