<svg width="50" height="50" viewBox="0 0 50 50" fill="none" xmlns="http://www.w3.org/2000/svg">
<rect width="50" height="50" rx="25" fill="#F0CFD1"/>
<path d="M25.472 22.6052H15.7935C15.016 22.6052 14.3857 23.2406 14.3857 24.0243V33.7802C14.3857 34.5639 15.016 35.1992 15.7935 35.1992H25.472C26.2495 35.1992 26.8798 34.5639 26.8798 33.7802V24.0243C26.8798 23.2406 26.2495 22.6052 25.472 22.6052Z" stroke="#B51118" stroke-width="1.4"/>
<path d="M28.3114 29.5231C32.3447 29.5231 35.6143 26.2274 35.6143 22.1618C35.6143 18.0963 32.3447 14.8005 28.3114 14.8005C24.2782 14.8005 21.0085 18.0963 21.0085 22.1618C21.0085 26.2274 24.2782 29.5231 28.3114 29.5231Z" stroke="#B51118" stroke-width="1.4"/>
</svg>
