<svg width="50" height="50" viewBox="0 0 50 50" fill="none" xmlns="http://www.w3.org/2000/svg">
<rect width="50" height="50" rx="25" fill="#FBE1D2"/>
<path d="M25.3049 19.0522H24.8091V18.5566C24.8091 15.3163 26.5253 13.6001 29.7657 13.6001H30.2612V14.0958C30.2612 17.336 28.545 19.0522 25.3049 19.0522ZM29.1887 15.1785C29.2364 14.8796 28.9818 14.6259 28.6833 14.6758C27.0775 14.9442 26.1533 15.8681 25.8803 17.4777C25.8295 17.7771 26.0843 18.0328 26.3841 17.9843C28.0176 17.7197 28.9287 16.8082 29.1887 15.1785Z" fill="#EA671D" stroke="#EA671D" stroke-width="0.32" stroke-linecap="round" stroke-linejoin="round"/>
<path d="M29.2694 36.4C28.4709 36.3994 27.6846 36.2059 26.9771 35.8362C25.9339 35.2777 24.6806 35.2777 23.6376 35.8362C22.9299 36.2059 22.1436 36.3994 21.3451 36.4C18.012 36.4 15.3974 31.8275 15.3974 25.9913C15.3974 22.4412 18.0678 19.5479 21.3451 19.5479C21.9588 19.5479 22.5683 19.6504 23.1481 19.8515L24.9883 20.4895C25.199 20.5623 25.4281 20.5623 25.6388 20.4895L27.4726 19.8515C28.0505 19.6513 28.6577 19.5488 29.2694 19.5479C31.0598 19.5479 32.7326 20.4091 33.8727 21.9084C34.0817 22.1861 33.9466 22.5873 33.6124 22.6827C31.8307 23.1962 30.644 24.8774 30.7571 26.7283C30.87 28.5792 32.2524 30.1035 34.0833 30.3963C34.3806 30.4453 34.5651 30.7473 34.4737 31.0345C33.4453 34.3429 31.4441 36.4 29.2694 36.4ZM25.3043 34.4173C26.0476 34.4231 26.7787 34.6081 27.4354 34.9564C28.0006 35.2548 28.6303 35.41 29.2694 35.4085C30.6722 35.4085 32.0147 34.2287 32.9533 32.245C33.2017 31.72 32.8809 31.1251 32.3688 30.8511C30.786 30.0041 29.759 28.3389 29.7651 26.4869C29.7726 24.7973 30.6339 23.2445 32.0229 22.338C32.3117 22.1496 32.3854 21.7369 32.1124 21.5262C31.2891 20.8907 30.302 20.5391 29.2694 20.5391C28.7675 20.5393 28.2691 20.6229 27.7948 20.787L25.9548 21.425C25.5352 21.5692 25.0794 21.5692 24.6599 21.425L22.8136 20.787C22.3393 20.6229 21.8409 20.5391 21.339 20.5391C18.6067 20.5391 16.3826 22.9864 16.3826 25.9913C16.3826 31.0965 18.6501 35.4085 21.339 35.4085C21.9781 35.4102 22.6079 35.255 23.173 34.9564C23.8297 34.6081 24.5608 34.4231 25.3043 34.4173Z" fill="#EA671D" stroke="#EA671D" stroke-width="0.474996" stroke-linecap="round" stroke-linejoin="round"/>
</svg>
