<svg width="168" height="46" viewBox="0 0 168 46" fill="none" xmlns="http://www.w3.org/2000/svg">
<path d="M6.25781 39.0819V14.893L24.9344 4.12752L18.7538 0.846191L0.0547485 11.6151V35.7946L6.25781 39.0819Z" fill="white"/>
<path d="M18.1995 45.4144V21.2018L30.8453 13.8816L34.1675 15.6758V30.9596L22.6461 37.6033V44.4607L40.3103 34.2646V12.2724L30.6479 7.16344L11.9664 17.9271L11.9889 42.1101L18.1995 45.4144Z" fill="white"/>
<path d="M22.6461 24.9528V31.2834L29.7125 27.1941V20.8672L22.6461 24.9528Z" fill="white"/>
<path d="M57.2385 14.218V9.1138L55.245 12.9145H54.4016L52.4082 9.1138V14.218H50.8966V6.44123H52.5177L54.8179 10.8663L57.1399 6.44123H58.75V14.218H57.2385Z" fill="white"/>
<path d="M62.9119 14.3275C62.2912 14.3275 61.7545 14.1924 61.3018 13.9222C60.8564 13.6521 60.5095 13.2943 60.2613 12.8488C60.013 12.3961 59.8889 11.9069 59.8889 11.3811C59.8889 10.8407 60.0093 10.3442 60.2503 9.89147C60.4986 9.43144 60.8491 9.06634 61.3018 8.79616C61.7545 8.51868 62.2949 8.37994 62.9229 8.37994C63.5509 8.37994 64.0876 8.51868 64.533 8.79616C64.9784 9.06634 65.318 9.42779 65.5516 9.88052C65.7926 10.3259 65.9131 10.8079 65.9131 11.3263C65.9131 11.5162 65.9021 11.6805 65.8802 11.8192H61.4442C61.4807 12.2647 61.645 12.6152 61.9371 12.8707C62.2365 13.1263 62.5797 13.2541 62.9667 13.2541C63.2588 13.2541 63.5326 13.1847 63.7882 13.046C64.0511 12.8999 64.23 12.7101 64.3249 12.4764L65.5845 12.8269C65.3727 13.265 65.0332 13.6265 64.5658 13.9113C64.0985 14.1888 63.5472 14.3275 62.9119 14.3275ZM61.4113 10.8882H64.4125C64.3687 10.4574 64.2044 10.1105 63.9196 9.84766C63.6421 9.57748 63.3026 9.44239 62.901 9.44239C62.5067 9.44239 62.1671 9.57748 61.8823 9.84766C61.6048 10.1105 61.4479 10.4574 61.4113 10.8882Z" fill="white"/>
<path d="M72.2567 14.218H70.789V10.9977C70.789 10.5523 70.7014 10.2201 70.5261 10.001C70.3582 9.78194 70.1245 9.67241 69.8251 9.67241C69.6426 9.67241 69.4527 9.72352 69.2555 9.82575C69.0657 9.92798 68.8904 10.0704 68.7298 10.2529C68.5764 10.4282 68.4633 10.6326 68.3902 10.8663V14.218H66.9225V6.22217H68.3902V9.54097C68.602 9.17587 68.8904 8.89109 69.2555 8.68663C69.6206 8.48217 70.0186 8.37994 70.4494 8.37994C70.9387 8.37994 71.3147 8.48947 71.5776 8.70853C71.8405 8.9276 72.0194 9.20873 72.1143 9.55193C72.2092 9.89512 72.2567 10.2566 72.2567 10.6363V14.218Z" fill="white"/>
<path d="M78.9824 14.218H77.5147V10.9977C77.5147 10.5377 77.4344 10.2018 77.2737 9.99005C77.1131 9.77829 76.8903 9.67241 76.6056 9.67241C76.4084 9.67241 76.2076 9.72352 76.0031 9.82575C75.806 9.92798 75.6271 10.0704 75.4664 10.2529C75.3058 10.4282 75.189 10.6326 75.1159 10.8663V14.218H73.6482V8.47852H74.9735V9.54097C75.1853 9.18317 75.492 8.90204 75.8936 8.69758C76.2952 8.48582 76.748 8.37994 77.2518 8.37994C77.6096 8.37994 77.9017 8.44566 78.128 8.57709C78.3544 8.70123 78.5297 8.87283 78.6538 9.09189C78.7779 9.30365 78.8619 9.54462 78.9057 9.8148C78.9568 10.085 78.9824 10.3588 78.9824 10.6363V14.218Z" fill="white"/>
<path d="M79.9796 12.5202C79.9796 12.1478 80.0818 11.8229 80.2863 11.5454C80.498 11.2606 80.7901 11.0416 81.1625 10.8882C81.5349 10.7349 81.9621 10.6582 82.444 10.6582C82.685 10.6582 82.9296 10.6801 83.1779 10.7239C83.4262 10.7604 83.6416 10.8152 83.8241 10.8882V10.5815C83.8241 10.2164 83.7146 9.93529 83.4956 9.73813C83.2838 9.54097 82.9661 9.44239 82.5426 9.44239C82.2286 9.44239 81.9293 9.49716 81.6445 9.60669C81.3597 9.71622 81.0603 9.87687 80.7463 10.0886L80.2753 9.12475C80.655 8.87648 81.042 8.69028 81.4364 8.56614C81.838 8.44201 82.2578 8.37994 82.696 8.37994C83.5138 8.37994 84.1491 8.5844 84.6018 8.99331C85.0619 9.40223 85.2919 9.9864 85.2919 10.7458V12.575C85.2919 12.7356 85.3174 12.8488 85.3685 12.9145C85.4197 12.973 85.5109 13.0095 85.6424 13.0241V14.218C85.5109 14.2472 85.3904 14.2654 85.2809 14.2727C85.1787 14.2873 85.0911 14.2946 85.018 14.2946C84.726 14.2946 84.5032 14.2289 84.3499 14.0975C84.1966 13.966 84.1053 13.8054 84.0761 13.6155L84.0432 13.3198C83.7876 13.6484 83.4736 13.9003 83.1012 14.0756C82.7361 14.2435 82.3601 14.3275 81.9731 14.3275C81.5861 14.3275 81.2429 14.2508 80.9435 14.0975C80.6441 13.9368 80.4068 13.7214 80.2315 13.4512C80.0636 13.1738 79.9796 12.8634 79.9796 12.5202ZM83.5503 12.816C83.7329 12.6407 83.8241 12.4728 83.8241 12.3121V11.7316C83.4444 11.5783 83.0611 11.5016 82.6741 11.5016C82.2871 11.5016 81.9731 11.5856 81.7321 11.7535C81.4911 11.9142 81.3706 12.1296 81.3706 12.3997C81.3706 12.6188 81.4583 12.816 81.6335 12.9912C81.8088 13.1665 82.0607 13.2541 82.3893 13.2541C82.6083 13.2541 82.8201 13.2139 83.0246 13.1336C83.2363 13.0533 83.4116 12.9474 83.5503 12.816Z" fill="white"/>
<path d="M90.1645 13.9222C89.9674 14.0099 89.7227 14.0975 89.4306 14.1851C89.1459 14.2727 88.8501 14.3165 88.5434 14.3165C88.2733 14.3165 88.025 14.2691 87.7986 14.1742C87.5723 14.0792 87.3897 13.9295 87.251 13.7251C87.1195 13.5133 87.0538 13.2395 87.0538 12.9036V9.60669H86.298V8.47852H87.0538V6.61648H88.5215V8.47852H89.7264V9.60669H88.5215V12.4107C88.5215 12.6079 88.5727 12.7502 88.6749 12.8379C88.7844 12.9255 88.9159 12.9693 89.0692 12.9693C89.2225 12.9693 89.3722 12.9438 89.5183 12.8926C89.6643 12.8415 89.7812 12.7977 89.8688 12.7612L90.1645 13.9222Z" fill="white"/>
<path d="M95.9048 14.3275C95.4156 14.3275 94.9482 14.2472 94.5028 14.0865C94.0574 13.9259 93.674 13.6886 93.3527 13.3746L93.8785 12.4217C94.2217 12.6991 94.5576 12.9036 94.8862 13.035C95.2147 13.1665 95.536 13.2322 95.85 13.2322C96.1348 13.2322 96.3612 13.1811 96.5291 13.0788C96.7044 12.9766 96.792 12.8233 96.792 12.6188C96.792 12.407 96.6861 12.2647 96.4744 12.1916C96.2626 12.1113 95.9669 12.0127 95.5872 11.8959C95.1636 11.7645 94.8095 11.6294 94.5247 11.4906C94.2399 11.3519 94.0245 11.1839 93.8785 10.9868C93.7397 10.7896 93.6703 10.5341 93.6703 10.2201C93.6703 9.65781 93.8821 9.20873 94.3056 8.87283C94.7292 8.53693 95.2914 8.36899 95.9924 8.36899C96.4013 8.36899 96.7883 8.4347 97.1535 8.56614C97.5186 8.69028 97.8508 8.89474 98.1502 9.17952L97.5587 10.1105C96.9965 9.67241 96.4525 9.45335 95.9267 9.45335C95.693 9.45335 95.4849 9.49716 95.3024 9.58478C95.1271 9.67241 95.0395 9.82575 95.0395 10.0448C95.0395 10.2493 95.1235 10.3953 95.2914 10.4829C95.4667 10.5706 95.7295 10.6655 96.08 10.7677C96.5328 10.9065 96.9161 11.0416 97.2301 11.173C97.5514 11.3044 97.7924 11.4724 97.953 11.6768C98.121 11.8813 98.205 12.1588 98.205 12.5093C98.205 13.0788 97.9968 13.5243 97.5806 13.8456C97.1644 14.1669 96.6058 14.3275 95.9048 14.3275Z" fill="white"/>
<path d="M101.969 14.3275C101.341 14.3275 100.801 14.1924 100.348 13.9222C99.9027 13.6448 99.5595 13.2796 99.3185 12.8269C99.0776 12.3742 98.9571 11.8849 98.9571 11.3592C98.9571 10.8261 99.0776 10.3333 99.3185 9.88052C99.5668 9.42779 99.9137 9.06634 100.359 8.79616C100.812 8.51868 101.349 8.37994 101.969 8.37994C102.59 8.37994 103.123 8.51868 103.568 8.79616C104.021 9.06634 104.368 9.42779 104.609 9.88052C104.85 10.3333 104.97 10.8261 104.97 11.3592C104.97 11.8849 104.85 12.3742 104.609 12.8269C104.368 13.2796 104.021 13.6448 103.568 13.9222C103.123 14.1924 102.59 14.3275 101.969 14.3275ZM100.469 11.3592C100.469 11.6951 100.534 11.9945 100.666 12.2574C100.797 12.5129 100.976 12.7137 101.202 12.8598C101.429 13.0058 101.684 13.0788 101.969 13.0788C102.247 13.0788 102.499 13.0058 102.725 12.8598C102.951 12.7064 103.13 12.502 103.262 12.2464C103.4 11.9835 103.47 11.6841 103.47 11.3482C103.47 11.0196 103.4 10.7276 103.262 10.472C103.13 10.2091 102.951 10.0047 102.725 9.85861C102.499 9.70527 102.247 9.6286 101.969 9.6286C101.684 9.6286 101.429 9.70527 101.202 9.85861C100.976 10.0047 100.797 10.2091 100.666 10.472C100.534 10.7276 100.469 11.0233 100.469 11.3592Z" fill="white"/>
<path d="M111.41 14.218H109.943V10.9977C109.943 10.5523 109.855 10.2201 109.68 10.001C109.512 9.78194 109.278 9.67241 108.979 9.67241C108.796 9.67241 108.606 9.72352 108.409 9.82575C108.219 9.92798 108.044 10.0704 107.884 10.2529C107.73 10.4282 107.617 10.6326 107.544 10.8663V14.218H106.076V6.22217H107.544V9.54097C107.756 9.17587 108.044 8.89109 108.409 8.68663C108.774 8.48217 109.172 8.37994 109.603 8.37994C110.092 8.37994 110.469 8.48947 110.731 8.70853C110.994 8.9276 111.173 9.20873 111.268 9.55193C111.363 9.89512 111.41 10.2566 111.41 10.6363V14.218Z" fill="white"/>
<path d="M112.408 12.5202C112.408 12.1478 112.51 11.8229 112.714 11.5454C112.926 11.2606 113.218 11.0416 113.591 10.8882C113.963 10.7349 114.39 10.6582 114.872 10.6582C115.113 10.6582 115.358 10.6801 115.606 10.7239C115.854 10.7604 116.07 10.8152 116.252 10.8882V10.5815C116.252 10.2164 116.143 9.93529 115.924 9.73813C115.712 9.54097 115.394 9.44239 114.971 9.44239C114.657 9.44239 114.357 9.49716 114.073 9.60669C113.788 9.71622 113.488 9.87687 113.174 10.0886L112.703 9.12475C113.083 8.87648 113.47 8.69028 113.864 8.56614C114.266 8.44201 114.686 8.37994 115.124 8.37994C115.942 8.37994 116.577 8.5844 117.03 8.99331C117.49 9.40223 117.72 9.9864 117.72 10.7458V12.575C117.72 12.7356 117.746 12.8488 117.797 12.9145C117.848 12.973 117.939 13.0095 118.07 13.0241V14.218C117.939 14.2472 117.819 14.2654 117.709 14.2727C117.607 14.2873 117.519 14.2946 117.446 14.2946C117.154 14.2946 116.931 14.2289 116.778 14.0975C116.625 13.966 116.533 13.8054 116.504 13.6155L116.471 13.3198C116.216 13.6484 115.902 13.9003 115.529 14.0756C115.164 14.2435 114.788 14.3275 114.401 14.3275C114.014 14.3275 113.671 14.2508 113.372 14.0975C113.072 13.9368 112.835 13.7214 112.66 13.4512C112.492 13.1738 112.408 12.8634 112.408 12.5202ZM115.978 12.816C116.161 12.6407 116.252 12.4728 116.252 12.3121V11.7316C115.873 11.5783 115.489 11.5016 115.102 11.5016C114.715 11.5016 114.401 11.5856 114.16 11.7535C113.919 11.9142 113.799 12.1296 113.799 12.3997C113.799 12.6188 113.886 12.816 114.062 12.9912C114.237 13.1665 114.489 13.2541 114.817 13.2541C115.036 13.2541 115.248 13.2139 115.453 13.1336C115.664 13.0533 115.84 12.9474 115.978 12.816Z" fill="white"/>
<path d="M121.321 14.3275C120.832 14.3275 120.364 14.2472 119.919 14.0865C119.473 13.9259 119.09 13.6886 118.769 13.3746L119.294 12.4217C119.638 12.6991 119.974 12.9036 120.302 13.035C120.631 13.1665 120.952 13.2322 121.266 13.2322C121.551 13.2322 121.777 13.1811 121.945 13.0788C122.12 12.9766 122.208 12.8233 122.208 12.6188C122.208 12.407 122.102 12.2647 121.89 12.1916C121.679 12.1113 121.383 12.0127 121.003 11.8959C120.58 11.7645 120.225 11.6294 119.941 11.4906C119.656 11.3519 119.44 11.1839 119.294 10.9868C119.156 10.7896 119.086 10.5341 119.086 10.2201C119.086 9.65781 119.298 9.20873 119.722 8.87283C120.145 8.53693 120.707 8.36899 121.408 8.36899C121.817 8.36899 122.204 8.4347 122.569 8.56614C122.935 8.69028 123.267 8.89474 123.566 9.17952L122.975 10.1105C122.412 9.67241 121.868 9.45335 121.343 9.45335C121.109 9.45335 120.901 9.49716 120.718 9.58478C120.543 9.67241 120.455 9.82575 120.455 10.0448C120.455 10.2493 120.539 10.3953 120.707 10.4829C120.883 10.5706 121.146 10.6655 121.496 10.7677C121.949 10.9065 122.332 11.0416 122.646 11.173C122.967 11.3044 123.208 11.4724 123.369 11.6768C123.537 11.8813 123.621 12.1588 123.621 12.5093C123.621 13.0788 123.413 13.5243 122.997 13.8456C122.58 14.1669 122.022 14.3275 121.321 14.3275Z" fill="white"/>
<path d="M124.734 7.67894V6.22217H126.202V7.67894H124.734ZM124.734 14.218V8.47852H126.202V14.218H124.734Z" fill="white"/>
<path d="M127.291 11.3482C127.291 10.8006 127.401 10.3004 127.62 9.84766C127.839 9.39493 128.142 9.03713 128.529 8.77425C128.916 8.51138 129.358 8.37994 129.854 8.37994C130.278 8.37994 130.657 8.48582 130.993 8.69758C131.336 8.90204 131.603 9.16491 131.793 9.48621V6.22217H133.261V12.575C133.261 12.7356 133.286 12.8488 133.337 12.9145C133.388 12.973 133.476 13.0095 133.6 13.0241V14.218C133.337 14.2691 133.129 14.2946 132.976 14.2946C132.713 14.2946 132.494 14.2289 132.319 14.0975C132.151 13.966 132.056 13.7944 132.034 13.5827L132.012 13.2212C131.8 13.579 131.512 13.8529 131.147 14.0427C130.789 14.2326 130.413 14.3275 130.018 14.3275C129.485 14.3275 129.014 14.1961 128.605 13.9332C128.197 13.663 127.875 13.3052 127.642 12.8598C127.408 12.407 127.291 11.9032 127.291 11.3482ZM131.793 12.115V10.7458C131.676 10.4245 131.475 10.158 131.19 9.94624C130.906 9.73448 130.614 9.6286 130.314 9.6286C130.015 9.6286 129.752 9.71257 129.526 9.88052C129.299 10.0412 129.124 10.2566 129 10.5268C128.876 10.7896 128.814 11.0744 128.814 11.3811C128.814 11.6951 128.883 11.9835 129.022 12.2464C129.16 12.502 129.347 12.7064 129.58 12.8598C129.821 13.0058 130.095 13.0788 130.402 13.0788C130.679 13.0788 130.953 12.9876 131.223 12.805C131.501 12.6225 131.691 12.3924 131.793 12.115Z" fill="white"/>
<path d="M134.422 12.5202C134.422 12.1478 134.524 11.8229 134.729 11.5454C134.941 11.2606 135.233 11.0416 135.605 10.8882C135.978 10.7349 136.405 10.6582 136.887 10.6582C137.128 10.6582 137.372 10.6801 137.621 10.7239C137.869 10.7604 138.084 10.8152 138.267 10.8882V10.5815C138.267 10.2164 138.157 9.93529 137.938 9.73813C137.726 9.54097 137.409 9.44239 136.985 9.44239C136.671 9.44239 136.372 9.49716 136.087 9.60669C135.802 9.71622 135.503 9.87687 135.189 10.0886L134.718 9.12475C135.098 8.87648 135.485 8.69028 135.879 8.56614C136.281 8.44201 136.7 8.37994 137.139 8.37994C137.956 8.37994 138.592 8.5844 139.044 8.99331C139.504 9.40223 139.734 9.9864 139.734 10.7458V12.575C139.734 12.7356 139.76 12.8488 139.811 12.9145C139.862 12.973 139.954 13.0095 140.085 13.0241V14.218C139.954 14.2472 139.833 14.2654 139.724 14.2727C139.621 14.2873 139.534 14.2946 139.461 14.2946C139.169 14.2946 138.946 14.2289 138.792 14.0975C138.639 13.966 138.548 13.8054 138.519 13.6155L138.486 13.3198C138.23 13.6484 137.916 13.9003 137.544 14.0756C137.179 14.2435 136.803 14.3275 136.416 14.3275C136.029 14.3275 135.685 14.2508 135.386 14.0975C135.087 13.9368 134.849 13.7214 134.674 13.4512C134.506 13.1738 134.422 12.8634 134.422 12.5202ZM137.993 12.816C138.175 12.6407 138.267 12.4728 138.267 12.3121V11.7316C137.887 11.5783 137.504 11.5016 137.117 11.5016C136.73 11.5016 136.416 11.5856 136.175 11.7535C135.934 11.9142 135.813 12.1296 135.813 12.3997C135.813 12.6188 135.901 12.816 136.076 12.9912C136.251 13.1665 136.503 13.2541 136.832 13.2541C137.051 13.2541 137.263 13.2139 137.467 13.1336C137.679 13.0533 137.854 12.9474 137.993 12.816Z" fill="white"/>
<path d="M143.467 14.2508C142.956 14.2508 142.506 14.1194 142.119 13.8565C141.732 13.5936 141.429 13.2431 141.21 12.805C140.991 12.3596 140.882 11.874 140.882 11.3482C140.882 10.7933 140.995 10.2931 141.221 9.84766C141.448 9.39493 141.762 9.03713 142.163 8.77425C142.565 8.51138 143.029 8.37994 143.554 8.37994C144 8.37994 144.39 8.48217 144.726 8.68663C145.062 8.88378 145.34 9.15031 145.559 9.48621V8.47852H146.84V13.9441C146.84 14.5137 146.702 14.9993 146.424 15.4009C146.154 15.8098 145.778 16.1202 145.296 16.3319C144.814 16.551 144.266 16.6605 143.653 16.6605C143.025 16.6605 142.496 16.5546 142.065 16.3429C141.641 16.1384 141.276 15.8463 140.969 15.4666L141.769 14.689C141.988 14.9591 142.262 15.1709 142.59 15.3242C142.926 15.4776 143.28 15.5543 143.653 15.5543C143.96 15.5543 144.241 15.4958 144.496 15.379C144.759 15.2695 144.971 15.0942 145.132 14.8532C145.292 14.6196 145.373 14.3165 145.373 13.9441V13.2212C145.183 13.5498 144.913 13.8054 144.562 13.988C144.219 14.1632 143.854 14.2508 143.467 14.2508ZM143.96 13.0788C144.281 13.0788 144.569 12.9839 144.825 12.7941C145.088 12.6042 145.27 12.3778 145.373 12.115V10.7458C145.241 10.4099 145.033 10.1397 144.748 9.93529C144.471 9.73083 144.179 9.6286 143.872 9.6286C143.573 9.6286 143.31 9.71257 143.083 9.88052C142.864 10.0485 142.693 10.2675 142.569 10.5377C142.444 10.8006 142.382 11.0854 142.382 11.3921C142.382 11.706 142.452 11.9908 142.59 12.2464C142.729 12.502 142.915 12.7064 143.149 12.8598C143.39 13.0058 143.66 13.0788 143.96 13.0788Z" fill="white"/>
<path d="M148.279 7.67894V6.22217H149.746V7.67894H148.279ZM148.279 14.218V8.47852H149.746V14.218H148.279Z" fill="white"/>
<path d="M50.7433 19.0777H52.211V25.2334C52.211 25.5036 52.2548 25.6825 52.3424 25.7701C52.4301 25.8577 52.5506 25.9015 52.7039 25.9015C52.8207 25.9015 52.9412 25.8869 53.0654 25.8577C53.1895 25.8285 53.299 25.792 53.3939 25.7482L53.5911 26.8654C53.3939 26.9603 53.1639 27.0333 52.9011 27.0845C52.6382 27.1356 52.4009 27.1611 52.1891 27.1611C51.7291 27.1611 51.3713 27.0406 51.1157 26.7997C50.8674 26.5514 50.7433 26.2009 50.7433 25.7482V19.0777Z" fill="white"/>
<path d="M56.9965 27.183C56.3686 27.183 55.8282 27.0479 55.3755 26.7778C54.93 26.5003 54.5868 26.1352 54.3459 25.6825C54.1049 25.2297 53.9844 24.7405 53.9844 24.2147C53.9844 23.6817 54.1049 23.1888 54.3459 22.7361C54.5941 22.2833 54.941 21.9219 55.3864 21.6517C55.8392 21.3742 56.3759 21.2355 56.9965 21.2355C57.6172 21.2355 58.1503 21.3742 58.5957 21.6517C59.0484 21.9219 59.3953 22.2833 59.6362 22.7361C59.8772 23.1888 59.9977 23.6817 59.9977 24.2147C59.9977 24.7405 59.8772 25.2297 59.6362 25.6825C59.3953 26.1352 59.0484 26.5003 58.5957 26.7778C58.1503 27.0479 57.6172 27.183 56.9965 27.183ZM55.496 24.2147C55.496 24.5506 55.5617 24.85 55.6931 25.1129C55.8246 25.3685 56.0035 25.5693 56.2298 25.7153C56.4562 25.8614 56.7118 25.9344 56.9965 25.9344C57.274 25.9344 57.5259 25.8614 57.7523 25.7153C57.9787 25.562 58.1576 25.3575 58.289 25.1019C58.4278 24.8391 58.4971 24.5397 58.4971 24.2038C58.4971 23.8752 58.4278 23.5831 58.289 23.3275C58.1576 23.0647 57.9787 22.8602 57.7523 22.7142C57.5259 22.5608 57.274 22.4841 56.9965 22.4841C56.7118 22.4841 56.4562 22.5608 56.2298 22.7142C56.0035 22.8602 55.8246 23.0647 55.6931 23.3275C55.5617 23.5831 55.496 23.8788 55.496 24.2147Z" fill="white"/>
<path d="M61.0102 28.1907C61.2804 28.2637 61.4995 28.3003 61.6674 28.3003C61.8646 28.3003 62.0216 28.2163 62.1384 28.0483C62.2625 27.8877 62.4013 27.5627 62.5546 27.0735L60.2873 21.3341H61.8098L63.3542 25.5729L64.7124 21.3341H66.1144L63.7047 28.2126C63.5733 28.6069 63.3359 28.9319 62.9927 29.1875C62.6568 29.4503 62.2406 29.5818 61.7441 29.5818C61.5031 29.5818 61.2585 29.5416 61.0102 29.4613V28.1907Z" fill="white"/>
<path d="M67.0271 20.5345V19.0777H68.4948V20.5345H67.0271ZM67.0271 27.0735V21.3341H68.4948V27.0735H67.0271Z" fill="white"/>
<path d="M75.2684 27.0735H73.8006V23.8533C73.8006 23.4079 73.713 23.0756 73.5378 22.8565C73.3698 22.6375 73.1362 22.5279 72.8368 22.5279C72.6542 22.5279 72.4644 22.5791 72.2672 22.6813C72.0774 22.7835 71.9021 22.9259 71.7415 23.1085C71.5881 23.2837 71.4749 23.4882 71.4019 23.7218V27.0735H69.9342V19.0777H71.4019V22.3965C71.6137 22.0314 71.9021 21.7466 72.2672 21.5422C72.6323 21.3377 73.0303 21.2355 73.4611 21.2355C73.9503 21.2355 74.3264 21.345 74.5893 21.5641C74.8521 21.7831 75.031 22.0643 75.126 22.4075C75.2209 22.7507 75.2684 23.1121 75.2684 23.4918V27.0735Z" fill="white"/>
<path d="M76.2656 25.3758C76.2656 25.0034 76.3678 24.6784 76.5723 24.4009C76.784 24.1162 77.0761 23.8971 77.4485 23.7437C77.8209 23.5904 78.2481 23.5137 78.73 23.5137C78.971 23.5137 79.2156 23.5356 79.4639 23.5795C79.7122 23.616 79.9276 23.6707 80.1101 23.7437V23.4371C80.1101 23.072 80.0006 22.7908 79.7815 22.5937C79.5698 22.3965 79.2521 22.2979 78.8286 22.2979C78.5146 22.2979 78.2152 22.3527 77.9304 22.4622C77.6457 22.5718 77.3463 22.7324 77.0323 22.9442L76.5613 21.9803C76.941 21.732 77.328 21.5458 77.7223 21.4217C78.1239 21.2975 78.5438 21.2355 78.9819 21.2355C79.7998 21.2355 80.4351 21.4399 80.8878 21.8489C81.3478 22.2578 81.5778 22.8419 81.5778 23.6014V25.4305C81.5778 25.5912 81.6034 25.7044 81.6545 25.7701C81.7056 25.8285 81.7969 25.865 81.9283 25.8796V27.0735C81.7969 27.1027 81.6764 27.121 81.5669 27.1283C81.4647 27.1429 81.377 27.1502 81.304 27.1502C81.0119 27.1502 80.7892 27.0845 80.6359 26.953C80.4825 26.8216 80.3912 26.6609 80.362 26.4711L80.3292 26.1753C80.0736 26.5039 79.7596 26.7559 79.3872 26.9311C79.0221 27.0991 78.646 27.183 78.259 27.183C77.872 27.183 77.5288 27.1064 77.2294 26.953C76.9301 26.7924 76.6927 26.577 76.5175 26.3068C76.3495 26.0293 76.2656 25.719 76.2656 25.3758ZM79.8363 25.6715C80.0188 25.4963 80.1101 25.3283 80.1101 25.1677V24.5871C79.7304 24.4338 79.347 24.3571 78.96 24.3571C78.573 24.3571 78.259 24.4411 78.0181 24.609C77.7771 24.7697 77.6566 24.9851 77.6566 25.2553C77.6566 25.4743 77.7442 25.6715 77.9195 25.8468C78.0947 26.022 78.3467 26.1096 78.6753 26.1096C78.8943 26.1096 79.1061 26.0695 79.3105 25.9891C79.5223 25.9088 79.6975 25.8029 79.8363 25.6715Z" fill="white"/>
<path d="M83.0537 19.0777H84.5214V25.2334C84.5214 25.5036 84.5653 25.6825 84.6529 25.7701C84.7405 25.8577 84.861 25.9015 85.0143 25.9015C85.1312 25.9015 85.2517 25.8869 85.3758 25.8577C85.4999 25.8285 85.6095 25.792 85.7044 25.7482L85.9015 26.8654C85.7044 26.9603 85.4744 27.0333 85.2115 27.0845C84.9486 27.1356 84.7113 27.1611 84.4995 27.1611C84.0395 27.1611 83.6817 27.0406 83.4261 26.7997C83.1779 26.5514 83.0537 26.2009 83.0537 25.7482V19.0777Z" fill="white"/>
<path d="M86.262 25.3758C86.262 25.0034 86.3642 24.6784 86.5687 24.4009C86.7804 24.1162 87.0725 23.8971 87.4449 23.7437C87.8173 23.5904 88.2445 23.5137 88.7265 23.5137C88.9674 23.5137 89.2121 23.5356 89.4603 23.5795C89.7086 23.616 89.924 23.6707 90.1066 23.7437V23.4371C90.1066 23.072 89.997 22.7908 89.778 22.5937C89.5662 22.3965 89.2486 22.2979 88.825 22.2979C88.511 22.2979 88.2117 22.3527 87.9269 22.4622C87.6421 22.5718 87.3427 22.7324 87.0287 22.9442L86.5577 21.9803C86.9374 21.732 87.3245 21.5458 87.7188 21.4217C88.1204 21.2975 88.5403 21.2355 88.9784 21.2355C89.7962 21.2355 90.4315 21.4399 90.8842 21.8489C91.3443 22.2578 91.5743 22.8419 91.5743 23.6014V25.4305C91.5743 25.5912 91.5998 25.7044 91.651 25.7701C91.7021 25.8285 91.7933 25.865 91.9248 25.8796V27.0735C91.7933 27.1027 91.6729 27.121 91.5633 27.1283C91.4611 27.1429 91.3735 27.1502 91.3004 27.1502C91.0084 27.1502 90.7857 27.0845 90.6323 26.953C90.479 26.8216 90.3877 26.6609 90.3585 26.4711L90.3256 26.1753C90.07 26.5039 89.7561 26.7559 89.3836 26.9311C89.0185 27.0991 88.6425 27.183 88.2555 27.183C87.8685 27.183 87.5253 27.1064 87.2259 26.953C86.9265 26.7924 86.6892 26.577 86.5139 26.3068C86.346 26.0293 86.262 25.719 86.262 25.3758ZM89.8327 25.6715C90.0153 25.4963 90.1066 25.3283 90.1066 25.1677V24.5871C89.7268 24.4338 89.3435 24.3571 88.9565 24.3571C88.5695 24.3571 88.2555 24.4411 88.0145 24.609C87.7735 24.7697 87.653 24.9851 87.653 25.2553C87.653 25.4743 87.7407 25.6715 87.9159 25.8468C88.0912 26.022 88.3431 26.1096 88.6717 26.1096C88.8908 26.1096 89.1025 26.0695 89.307 25.9891C89.5187 25.9088 89.694 25.8029 89.8327 25.6715Z" fill="white"/>
<path d="M96.4785 22.6046C96.0331 22.6046 95.6351 22.6922 95.2846 22.8675C94.9341 23.0354 94.6822 23.2801 94.5288 23.6014V27.0735H93.0611V21.3341H94.4084V22.5608C94.6055 22.1665 94.8611 21.8562 95.1751 21.6298C95.4964 21.4034 95.8323 21.2793 96.1828 21.2574C96.3361 21.2574 96.4347 21.261 96.4785 21.2683V22.6046Z" fill="white"/>
<path d="M102.746 27.0735H101.279V23.8533C101.279 23.3932 101.198 23.0574 101.038 22.8456C100.877 22.6338 100.654 22.5279 100.37 22.5279C100.172 22.5279 99.9716 22.5791 99.7671 22.6813C99.57 22.7835 99.3911 22.9259 99.2304 23.1085C99.0698 23.2837 98.9529 23.4882 98.8799 23.7218V27.0735H97.4122V21.3341H98.7375V22.3965C98.9493 22.0387 99.256 21.7576 99.6576 21.5531C100.059 21.3414 100.512 21.2355 101.016 21.2355C101.374 21.2355 101.666 21.3012 101.892 21.4326C102.118 21.5568 102.294 21.7284 102.418 21.9474C102.542 22.1592 102.626 22.4002 102.67 22.6703C102.721 22.9405 102.746 23.2143 102.746 23.4918V27.0735Z" fill="white"/>
<path d="M104.138 20.5345V19.0777H105.606V20.5345H104.138ZM104.138 27.0735V21.3341H105.606V27.0735H104.138Z" fill="white"/>
<path d="M113.056 27.183C112.617 27.183 112.227 27.0845 111.884 26.8873C111.54 26.6901 111.27 26.42 111.073 26.0768V27.0735H109.792V19.0777H111.259V22.3417C111.464 21.9985 111.73 21.7284 112.059 21.5312C112.395 21.3341 112.785 21.2355 113.231 21.2355C113.727 21.2355 114.162 21.3742 114.534 21.6517C114.914 21.9219 115.21 22.2833 115.421 22.7361C115.633 23.1888 115.739 23.6853 115.739 24.2257C115.739 24.7806 115.622 25.2808 115.389 25.7263C115.155 26.1717 114.834 26.5258 114.425 26.7887C114.023 27.0516 113.567 27.183 113.056 27.183ZM112.65 25.9344C112.964 25.9344 113.238 25.8577 113.472 25.7044C113.713 25.551 113.899 25.3466 114.03 25.091C114.169 24.8281 114.239 24.5433 114.239 24.2366C114.239 23.9226 114.173 23.6342 114.041 23.3713C113.917 23.1012 113.742 22.8858 113.516 22.7251C113.289 22.5645 113.03 22.4841 112.738 22.4841C112.417 22.4841 112.121 22.5937 111.851 22.8127C111.588 23.0245 111.391 23.2874 111.259 23.6014V24.9705C111.354 25.2553 111.54 25.489 111.818 25.6715C112.095 25.8468 112.373 25.9344 112.65 25.9344Z" fill="white"/>
<path d="M119.5 27.183C118.872 27.183 118.331 27.0479 117.878 26.7778C117.433 26.5003 117.09 26.1352 116.849 25.6825C116.608 25.2297 116.487 24.7405 116.487 24.2147C116.487 23.6817 116.608 23.1888 116.849 22.7361C117.097 22.2833 117.444 21.9219 117.889 21.6517C118.342 21.3742 118.879 21.2355 119.5 21.2355C120.12 21.2355 120.653 21.3742 121.099 21.6517C121.551 21.9219 121.898 22.2833 122.139 22.7361C122.38 23.1888 122.501 23.6817 122.501 24.2147C122.501 24.7405 122.38 25.2297 122.139 25.6825C121.898 26.1352 121.551 26.5003 121.099 26.7778C120.653 27.0479 120.12 27.183 119.5 27.183ZM117.999 24.2147C117.999 24.5506 118.065 24.85 118.196 25.1129C118.328 25.3685 118.506 25.5693 118.733 25.7153C118.959 25.8614 119.215 25.9344 119.5 25.9344C119.777 25.9344 120.029 25.8614 120.255 25.7153C120.482 25.562 120.661 25.3575 120.792 25.1019C120.931 24.8391 121 24.5397 121 24.2038C121 23.8752 120.931 23.5831 120.792 23.3275C120.661 23.0647 120.482 22.8602 120.255 22.7142C120.029 22.5608 119.777 22.4841 119.5 22.4841C119.215 22.4841 118.959 22.5608 118.733 22.7142C118.506 22.8602 118.328 23.0647 118.196 23.3275C118.065 23.5831 117.999 23.8788 117.999 24.2147Z" fill="white"/>
<path d="M125.721 27.183C125.231 27.183 124.764 27.1027 124.319 26.9421C123.873 26.7814 123.49 26.5441 123.169 26.2301L123.694 25.2772C124.037 25.5547 124.373 25.7591 124.702 25.8906C125.031 26.022 125.352 26.0877 125.666 26.0877C125.951 26.0877 126.177 26.0366 126.345 25.9344C126.52 25.8321 126.608 25.6788 126.608 25.4743C126.608 25.2626 126.502 25.1202 126.29 25.0472C126.078 24.9669 125.783 24.8683 125.403 24.7514C124.979 24.62 124.625 24.4849 124.341 24.3462C124.056 24.2074 123.84 24.0395 123.694 23.8423C123.556 23.6452 123.486 23.3896 123.486 23.0756C123.486 22.5133 123.698 22.0643 124.121 21.7284C124.545 21.3925 125.107 21.2245 125.808 21.2245C126.217 21.2245 126.604 21.2902 126.969 21.4217C127.334 21.5458 127.667 21.7503 127.966 22.0351L127.375 22.9661C126.812 22.528 126.268 22.3089 125.743 22.3089C125.509 22.3089 125.301 22.3527 125.118 22.4403C124.943 22.528 124.855 22.6813 124.855 22.9004C124.855 23.1048 124.939 23.2509 125.107 23.3385C125.282 23.4261 125.545 23.521 125.896 23.6233C126.349 23.762 126.732 23.8971 127.046 24.0285C127.367 24.16 127.608 24.3279 127.769 24.5324C127.937 24.7368 128.021 25.0143 128.021 25.3648C128.021 25.9344 127.813 26.3798 127.396 26.7011C126.98 27.0224 126.422 27.183 125.721 27.183Z" fill="white"/>
<path d="M134.469 27.0735H133.001V23.8533C133.001 23.4079 132.913 23.0756 132.738 22.8565C132.57 22.6375 132.336 22.5279 132.037 22.5279C131.854 22.5279 131.665 22.5791 131.467 22.6813C131.277 22.7835 131.102 22.9259 130.942 23.1085C130.788 23.2837 130.675 23.4882 130.602 23.7218V27.0735H129.134V19.0777H130.602V22.3965C130.814 22.0314 131.102 21.7466 131.467 21.5422C131.832 21.3377 132.23 21.2355 132.661 21.2355C133.15 21.2355 133.527 21.345 133.789 21.5641C134.052 21.7831 134.231 22.0643 134.326 22.4075C134.421 22.7507 134.469 23.1121 134.469 23.4918V27.0735Z" fill="white"/>
<path d="M138.029 27.183C137.54 27.183 137.105 27.0479 136.725 26.7778C136.346 26.5076 136.05 26.1461 135.838 25.6934C135.626 25.2407 135.52 24.7405 135.52 24.1928C135.52 23.6452 135.637 23.1486 135.871 22.7032C136.105 22.2505 136.422 21.8927 136.824 21.6298C137.233 21.3669 137.693 21.2355 138.204 21.2355C138.642 21.2355 139.029 21.3377 139.365 21.5422C139.701 21.7393 139.975 22.0022 140.187 22.3308V21.3341H141.468V29.4065H140V26.0658C139.562 26.8106 138.905 27.183 138.029 27.183ZM138.576 25.9344C138.89 25.9344 139.164 25.8468 139.398 25.6715C139.639 25.4963 139.84 25.2699 140 24.9924V23.6342C139.949 23.4152 139.847 23.2216 139.694 23.0537C139.54 22.8784 139.361 22.7397 139.157 22.6375C138.96 22.5352 138.759 22.4841 138.555 22.4841C138.255 22.4841 137.989 22.5681 137.755 22.7361C137.529 22.8967 137.35 23.1121 137.218 23.3823C137.087 23.6452 137.021 23.93 137.021 24.2366C137.021 24.5506 137.087 24.8391 137.218 25.1019C137.35 25.3575 137.532 25.562 137.766 25.7153C138 25.8614 138.27 25.9344 138.576 25.9344Z" fill="white"/>
<path d="M142.523 25.3758C142.523 25.0034 142.625 24.6784 142.83 24.4009C143.041 24.1162 143.334 23.8971 143.706 23.7437C144.078 23.5904 144.506 23.5137 144.987 23.5137C145.228 23.5137 145.473 23.5356 145.721 23.5795C145.97 23.616 146.185 23.6707 146.368 23.7437V23.4371C146.368 23.072 146.258 22.7908 146.039 22.5937C145.827 22.3965 145.51 22.2979 145.086 22.2979C144.772 22.2979 144.473 22.3527 144.188 22.4622C143.903 22.5718 143.604 22.7324 143.29 22.9442L142.819 21.9803C143.198 21.732 143.585 21.5458 143.98 21.4217C144.381 21.2975 144.801 21.2355 145.239 21.2355C146.057 21.2355 146.692 21.4399 147.145 21.8489C147.605 22.2578 147.835 22.8419 147.835 23.6014V25.4305C147.835 25.5912 147.861 25.7044 147.912 25.7701C147.963 25.8285 148.054 25.865 148.186 25.8796V27.0735C148.054 27.1027 147.934 27.121 147.824 27.1283C147.722 27.1429 147.634 27.1502 147.561 27.1502C147.269 27.1502 147.047 27.0845 146.893 26.953C146.74 26.8216 146.649 26.6609 146.619 26.4711L146.587 26.1753C146.331 26.5039 146.017 26.7559 145.645 26.9311C145.28 27.0991 144.903 27.183 144.516 27.183C144.129 27.183 143.786 27.1064 143.487 26.953C143.187 26.7924 142.95 26.577 142.775 26.3068C142.607 26.0293 142.523 25.719 142.523 25.3758ZM146.094 25.6715C146.276 25.4963 146.368 25.3283 146.368 25.1677V24.5871C145.988 24.4338 145.604 24.3571 145.217 24.3571C144.83 24.3571 144.516 24.4411 144.275 24.609C144.035 24.7697 143.914 24.9851 143.914 25.2553C143.914 25.4743 144.002 25.6715 144.177 25.8468C144.352 26.022 144.604 26.1096 144.933 26.1096C145.152 26.1096 145.364 26.0695 145.568 25.9891C145.78 25.9088 145.955 25.8029 146.094 25.6715Z" fill="white"/>
<path d="M152.739 22.6046C152.294 22.6046 151.896 22.6922 151.546 22.8675C151.195 23.0354 150.943 23.2801 150.79 23.6014V27.0735H149.322V21.3341H150.669V22.5608C150.867 22.1665 151.122 21.8562 151.436 21.6298C151.757 21.4034 152.093 21.2793 152.444 21.2574C152.597 21.2574 152.696 21.261 152.739 21.2683V22.6046Z" fill="white"/>
<path d="M153.673 20.5345V19.0777H155.141V20.5345H153.673ZM153.673 27.0735V21.3341H155.141V27.0735H153.673Z" fill="white"/>
<path d="M158.694 27.183C158.205 27.183 157.738 27.1027 157.292 26.9421C156.847 26.7814 156.463 26.5441 156.142 26.2301L156.668 25.2772C157.011 25.5547 157.347 25.7591 157.676 25.8906C158.004 26.022 158.325 26.0877 158.639 26.0877C158.924 26.0877 159.151 26.0366 159.319 25.9344C159.494 25.8321 159.581 25.6788 159.581 25.4743C159.581 25.2626 159.476 25.1202 159.264 25.0472C159.052 24.9669 158.756 24.8683 158.377 24.7514C157.953 24.62 157.599 24.4849 157.314 24.3462C157.029 24.2074 156.814 24.0395 156.668 23.8423C156.529 23.6452 156.46 23.3896 156.46 23.0756C156.46 22.5133 156.672 22.0643 157.095 21.7284C157.519 21.3925 158.081 21.2245 158.782 21.2245C159.191 21.2245 159.578 21.2902 159.943 21.4217C160.308 21.5458 160.64 21.7503 160.94 22.0351L160.348 22.9661C159.786 22.528 159.242 22.3089 158.716 22.3089C158.482 22.3089 158.274 22.3527 158.092 22.4403C157.917 22.528 157.829 22.6813 157.829 22.9004C157.829 23.1048 157.913 23.2509 158.081 23.3385C158.256 23.4261 158.519 23.521 158.869 23.6233C159.322 23.762 159.706 23.8971 160.02 24.0285C160.341 24.16 160.582 24.3279 160.742 24.5324C160.91 24.7368 160.994 25.0143 160.994 25.3648C160.994 25.9344 160.786 26.3798 160.37 26.7011C159.954 27.0224 159.395 27.183 158.694 27.183Z" fill="white"/>
<path d="M167.442 27.0735H165.974V23.8533C165.974 23.4079 165.887 23.0756 165.712 22.8565C165.544 22.6375 165.31 22.5279 165.011 22.5279C164.828 22.5279 164.638 22.5791 164.441 22.6813C164.251 22.7835 164.076 22.9259 163.915 23.1085C163.762 23.2837 163.649 23.4882 163.576 23.7218V27.0735H162.108V19.0777H163.576V22.3965C163.787 22.0314 164.076 21.7466 164.441 21.5422C164.806 21.3377 165.204 21.2355 165.635 21.2355C166.124 21.2355 166.5 21.345 166.763 21.5641C167.026 21.7831 167.205 22.0643 167.3 22.4075C167.395 22.7507 167.442 23.1121 167.442 23.4918V27.0735Z" fill="white"/>
<path d="M59.6701 39.929H58.2024V36.7088C58.2024 36.2561 58.1221 35.9238 57.9614 35.7121C57.8081 35.493 57.5927 35.3835 57.3152 35.3835C57.0231 35.3835 56.7493 35.4967 56.4937 35.723C56.2381 35.9421 56.0556 36.2305 55.946 36.5883V39.929H54.4783V36.7088C54.4783 36.2488 54.398 35.9129 54.2373 35.7011C54.084 35.4894 53.8686 35.3835 53.5911 35.3835C53.3063 35.3835 53.0325 35.493 52.7696 35.7121C52.514 35.9311 52.3315 36.2196 52.222 36.5774V39.929H50.7542V34.1896H52.0796V35.2521C52.2913 34.8796 52.5798 34.5949 52.9449 34.3977C53.3173 34.1932 53.7408 34.091 54.2154 34.091C54.6901 34.091 55.0588 34.2078 55.3217 34.4415C55.5919 34.6752 55.7635 34.9636 55.8365 35.3068C56.0629 34.9125 56.3586 34.6131 56.7237 34.4087C57.0888 34.1969 57.4977 34.091 57.9505 34.091C58.3083 34.091 58.5967 34.1567 58.8158 34.2882C59.0421 34.4123 59.2174 34.5839 59.3415 34.803C59.4656 35.0147 59.5496 35.2557 59.5934 35.5259C59.6445 35.7961 59.6701 36.0699 59.6701 36.3474V39.929Z" fill="white"/>
<path d="M60.6689 38.2313C60.6689 37.8589 60.7712 37.534 60.9756 37.2565C61.1874 36.9717 61.4795 36.7526 61.8519 36.5993C62.2243 36.4459 62.6514 36.3693 63.1334 36.3693C63.3744 36.3693 63.619 36.3912 63.8672 36.435C64.1155 36.4715 64.3309 36.5263 64.5135 36.5993V36.2926C64.5135 35.9275 64.4039 35.6464 64.1849 35.4492C63.9731 35.252 63.6555 35.1535 63.232 35.1535C62.918 35.1535 62.6186 35.2082 62.3338 35.3178C62.049 35.4273 61.7496 35.5879 61.4356 35.7997L60.9647 34.8358C61.3444 34.5876 61.7314 34.4014 62.1257 34.2772C62.5273 34.1531 62.9472 34.091 63.3853 34.091C64.2031 34.091 64.8384 34.2955 65.2912 34.7044C65.7512 35.1133 65.9812 35.6975 65.9812 36.4569V38.2861C65.9812 38.4467 66.0068 38.5599 66.0579 38.6256C66.109 38.684 66.2003 38.7205 66.3317 38.7351V39.929C66.2003 39.9583 66.0798 39.9765 65.9702 39.9838C65.868 39.9984 65.7804 40.0057 65.7074 40.0057C65.4153 40.0057 65.1926 39.94 65.0392 39.8086C64.8859 39.6771 64.7946 39.5165 64.7654 39.3266L64.7325 39.0309C64.477 39.3595 64.163 39.6114 63.7906 39.7867C63.4255 39.9546 63.0494 40.0386 62.6624 40.0386C62.2754 40.0386 61.9322 39.9619 61.6328 39.8086C61.3334 39.6479 61.0961 39.4325 60.9208 39.1623C60.7529 38.8848 60.6689 38.5745 60.6689 38.2313ZM64.2397 38.527C64.4222 38.3518 64.5135 38.1838 64.5135 38.0232V37.4427C64.1338 37.2893 63.7504 37.2127 63.3634 37.2127C62.9764 37.2127 62.6624 37.2966 62.4214 37.4646C62.1805 37.6252 62.06 37.8406 62.06 38.1108C62.06 38.3299 62.1476 38.527 62.3229 38.7023C62.4981 38.8775 62.75 38.9652 63.0786 38.9652C63.2977 38.9652 63.5094 38.925 63.7139 38.8447C63.9257 38.7644 64.1009 38.6585 64.2397 38.527Z" fill="white"/>
<path d="M70.8854 35.4602C70.44 35.4602 70.042 35.5478 69.6915 35.723C69.341 35.891 69.0891 36.1356 68.9358 36.4569V39.929H67.468V34.1896H68.8153V35.4163C69.0124 35.022 69.268 34.7117 69.582 34.4853C69.9033 34.259 70.2392 34.1348 70.5897 34.1129C70.743 34.1129 70.8416 34.1166 70.8854 34.1239V35.4602Z" fill="white"/>
<path d="M75.7403 39.929L74.0645 37.4536L73.2868 38.2204V39.929H71.8191V31.9332H73.2868V36.7745L75.598 34.2005H77.1533L75.0174 36.6321L77.3067 39.929H75.7403Z" fill="white"/>
<path d="M77.5943 38.2313C77.5943 37.8589 77.6965 37.534 77.901 37.2565C78.1127 36.9717 78.4048 36.7526 78.7772 36.5993C79.1496 36.4459 79.5768 36.3693 80.0587 36.3693C80.2997 36.3693 80.5443 36.3912 80.7926 36.435C81.0409 36.4715 81.2563 36.5263 81.4388 36.5993V36.2926C81.4388 35.9275 81.3293 35.6464 81.1102 35.4492C80.8985 35.252 80.5808 35.1535 80.1573 35.1535C79.8433 35.1535 79.5439 35.2082 79.2592 35.3178C78.9744 35.4273 78.675 35.5879 78.361 35.7997L77.89 34.8358C78.2697 34.5876 78.6567 34.4014 79.0511 34.2772C79.4527 34.1531 79.8725 34.091 80.3107 34.091C81.1285 34.091 81.7638 34.2955 82.2165 34.7044C82.6765 35.1133 82.9066 35.6975 82.9066 36.4569V38.2861C82.9066 38.4467 82.9321 38.5599 82.9832 38.6256C83.0344 38.684 83.1256 38.7205 83.2571 38.7351V39.929C83.1256 39.9583 83.0051 39.9765 82.8956 39.9838C82.7934 39.9984 82.7058 40.0057 82.6327 40.0057C82.3407 40.0057 82.1179 39.94 81.9646 39.8086C81.8113 39.6771 81.72 39.5165 81.6908 39.3266L81.6579 39.0309C81.4023 39.3595 81.0883 39.6114 80.7159 39.7867C80.3508 39.9546 79.9748 40.0386 79.5878 40.0386C79.2007 40.0386 78.8576 39.9619 78.5582 39.8086C78.2588 39.6479 78.0215 39.4325 77.8462 39.1623C77.6783 38.8848 77.5943 38.5745 77.5943 38.2313ZM81.165 38.527C81.3476 38.3518 81.4388 38.1838 81.4388 38.0232V37.4427C81.0591 37.2893 80.6758 37.2127 80.2888 37.2127C79.9018 37.2127 79.5878 37.2966 79.3468 37.4646C79.1058 37.6252 78.9853 37.8406 78.9853 38.1108C78.9853 38.3299 79.073 38.527 79.2482 38.7023C79.4235 38.8775 79.6754 38.9652 80.004 38.9652C80.223 38.9652 80.4348 38.925 80.6393 38.8447C80.851 38.7644 81.0263 38.6585 81.165 38.527Z" fill="white"/>
<path d="M84.01 39.0309L87.1755 35.2192H84.1415V34.1896H88.7528V35.0878L85.6092 38.8994H88.8075V39.929H84.01V39.0309Z" fill="white"/>
<path d="M89.9104 33.39V31.9332H91.3781V33.39H89.9104ZM89.9104 39.929V34.1896H91.3781V39.929H89.9104Z" fill="white"/>
</svg>
