<svg width="192" height="51" viewBox="0 0 192 51" fill="none" xmlns="http://www.w3.org/2000/svg">
<path d="M7.08824 43.7536V16.0739L28.43 3.75487L21.3675 0L0 12.323V39.992L7.08824 43.7536Z" fill="#00264D"/>
<path d="M20.734 51V23.2932L35.1844 14.9166L38.9806 16.9697V34.4592L25.8152 42.0617V49.9087L46 38.2412V13.0752L34.9588 7.22892L13.6115 19.5459L13.6372 47.2188L20.734 51Z" fill="#00264D"/>
<path d="M25.8152 27.5855V34.8297L33.8899 30.1503V22.9104L25.8152 27.5855Z" fill="#00264D"/>
<path d="M65.4582 15.2214V9.33488L63.1691 13.7182H62.2007L59.9117 9.33488V15.2214H58.1761V6.25264H60.0375L62.6786 11.356L65.345 6.25264H67.1938V15.2214H65.4582Z" fill="#00264D"/>
<path d="M71.9727 15.3478C71.26 15.3478 70.6437 15.192 70.1239 14.8804C69.6124 14.5688 69.2141 14.1561 68.9291 13.6424C68.644 13.1203 68.5014 12.5561 68.5014 11.9497C68.5014 11.3265 68.6398 10.7539 68.9165 10.2318C69.2016 9.70121 69.604 9.28014 70.1239 8.96855C70.6437 8.64853 71.2642 8.48853 71.9853 8.48853C72.7064 8.48853 73.3226 8.64853 73.8341 8.96855C74.3456 9.28014 74.7354 9.697 75.0038 10.2191C75.2804 10.7328 75.4188 11.2886 75.4188 11.8866C75.4188 12.1055 75.4062 12.295 75.3811 12.455H70.2874C70.3293 12.9687 70.518 13.3729 70.8533 13.6677C71.1971 13.9624 71.5912 14.1098 72.0356 14.1098C72.371 14.1098 72.6854 14.0298 72.9789 13.8698C73.2807 13.7014 73.4861 13.4824 73.5951 13.2129L75.0415 13.6172C74.7983 14.1225 74.4084 14.5393 73.8718 14.8677C73.3352 15.1878 72.7022 15.3478 71.9727 15.3478ZM70.2496 11.3813H73.6957C73.6454 10.8844 73.4568 10.4844 73.1298 10.1812C72.8112 9.86964 72.4213 9.71384 71.9601 9.71384C71.5073 9.71384 71.1175 9.86964 70.7905 10.1812C70.4718 10.4844 70.2916 10.8844 70.2496 11.3813Z" fill="#00264D"/>
<path d="M82.7029 15.2214H81.0176V11.5076C81.0176 10.9939 80.9169 10.6107 80.7157 10.3581C80.5229 10.1054 80.2546 9.97912 79.9108 9.97912C79.7012 9.97912 79.4832 10.0381 79.2568 10.156C79.0388 10.2739 78.8376 10.4381 78.6531 10.6486C78.477 10.8507 78.347 11.0865 78.2632 11.356V15.2214H76.5779V6H78.2632V9.82753C78.5064 9.40646 78.8376 9.07803 79.2568 8.84223C79.676 8.60643 80.133 8.48853 80.6277 8.48853C81.1894 8.48853 81.6213 8.61485 81.9231 8.86749C82.225 9.12013 82.4304 9.44436 82.5394 9.84016C82.6484 10.236 82.7029 10.6528 82.7029 11.0907V15.2214Z" fill="#00264D"/>
<path d="M90.4257 15.2214H88.7404V11.5076C88.7404 10.9771 88.6481 10.5897 88.4637 10.3454C88.2792 10.1012 88.0235 9.97912 87.6965 9.97912C87.4701 9.97912 87.2395 10.0381 87.0047 10.156C86.7784 10.2739 86.5729 10.4381 86.3885 10.6486C86.204 10.8507 86.0699 11.0865 85.986 11.356V15.2214H84.3007V8.60222H85.8225V9.82753C86.0657 9.41488 86.4178 9.09066 86.879 8.85486C87.3401 8.61064 87.86 8.48853 88.4385 8.48853C88.8494 8.48853 89.1848 8.56432 89.4447 8.7159C89.7046 8.85907 89.9058 9.05697 90.0484 9.30961C90.1909 9.55384 90.2873 9.83174 90.3377 10.1433C90.3963 10.4549 90.4257 10.7707 90.4257 11.0907V15.2214Z" fill="#00264D"/>
<path d="M91.5707 13.2635C91.5707 12.834 91.6881 12.4592 91.9229 12.1392C92.166 11.8108 92.5014 11.5581 92.929 11.3813C93.3567 11.2044 93.8472 11.116 94.4006 11.116C94.6772 11.116 94.9581 11.1413 95.2432 11.1918C95.5283 11.2339 95.7756 11.2971 95.9853 11.3813V11.0276C95.9853 10.6065 95.8595 10.2823 95.6079 10.0549C95.3648 9.82753 95.0001 9.71384 94.5137 9.71384C94.1532 9.71384 93.8094 9.777 93.4824 9.90332C93.1554 10.0296 92.8117 10.2149 92.4511 10.4591L91.9103 9.34751C92.3463 9.06118 92.7907 8.84644 93.2435 8.70327C93.7046 8.56011 94.1867 8.48853 94.6898 8.48853C95.6289 8.48853 96.3584 8.72433 96.8782 9.19593C97.4065 9.66752 97.6706 10.3412 97.6706 11.2171V13.3266C97.6706 13.5119 97.6999 13.6424 97.7586 13.7182C97.8173 13.7856 97.9221 13.8277 98.073 13.8445V15.2214C97.9221 15.2551 97.7838 15.2762 97.658 15.2846C97.5406 15.3015 97.44 15.3099 97.3561 15.3099C97.0208 15.3099 96.765 15.2341 96.589 15.0825C96.4129 14.9309 96.3081 14.7456 96.2745 14.5267L96.2368 14.1856C95.9433 14.5646 95.5828 14.8551 95.1552 15.0572C94.7359 15.2509 94.3041 15.3478 93.8597 15.3478C93.4154 15.3478 93.0213 15.2593 92.6775 15.0825C92.3337 14.8972 92.0612 14.6488 91.86 14.3372C91.6671 14.0172 91.5707 13.6593 91.5707 13.2635ZM95.6708 13.6045C95.8804 13.4024 95.9853 13.2087 95.9853 13.0235V12.354C95.5493 12.1771 95.1091 12.0887 94.6647 12.0887C94.2203 12.0887 93.8597 12.1855 93.583 12.3792C93.3064 12.5645 93.168 12.8129 93.168 13.1245C93.168 13.3772 93.2686 13.6045 93.4699 13.8066C93.6711 14.0088 93.9604 14.1098 94.3377 14.1098C94.5892 14.1098 94.8324 14.0635 95.0671 13.9709C95.3103 13.8782 95.5115 13.7561 95.6708 13.6045Z" fill="#00264D"/>
<path d="M103.266 14.8804C103.039 14.9814 102.758 15.0825 102.423 15.1835C102.096 15.2846 101.756 15.3351 101.404 15.3351C101.094 15.3351 100.809 15.2804 100.549 15.1709C100.289 15.0614 100.079 14.8888 99.9201 14.653C99.7692 14.4088 99.6937 14.093 99.6937 13.7056V9.90332H98.8259V8.60222H99.6937V6.45476H101.379V8.60222H102.763V9.90332H101.379V13.1371C101.379 13.3645 101.438 13.5287 101.555 13.6298C101.681 13.7309 101.832 13.7814 102.008 13.7814C102.184 13.7814 102.356 13.7519 102.524 13.693C102.691 13.634 102.825 13.5835 102.926 13.5414L103.266 14.8804Z" fill="#00264D"/>
<path d="M109.857 15.3478C109.295 15.3478 108.759 15.2551 108.247 15.0699C107.736 14.8846 107.295 14.6109 106.926 14.2488L107.53 13.1498C107.924 13.4698 108.31 13.7056 108.687 13.8572C109.065 14.0088 109.433 14.0846 109.794 14.0846C110.121 14.0846 110.381 14.0256 110.574 13.9077C110.775 13.7898 110.876 13.613 110.876 13.3772C110.876 13.1329 110.754 12.9687 110.511 12.8845C110.268 12.7919 109.928 12.6782 109.492 12.5434C109.006 12.3919 108.599 12.2361 108.272 12.076C107.945 11.916 107.698 11.7223 107.53 11.495C107.371 11.2676 107.291 10.9728 107.291 10.6107C107.291 9.96227 107.534 9.44436 108.021 9.05697C108.507 8.66959 109.153 8.47589 109.958 8.47589C110.427 8.47589 110.871 8.55169 111.291 8.70327C111.71 8.84644 112.091 9.08224 112.435 9.41067L111.756 10.4844C111.11 9.97912 110.486 9.72647 109.882 9.72647C109.614 9.72647 109.375 9.777 109.165 9.87806C108.964 9.97912 108.863 10.156 108.863 10.4086C108.863 10.6444 108.96 10.8128 109.153 10.9139C109.354 11.015 109.656 11.1244 110.058 11.2423C110.578 11.4023 111.018 11.5581 111.379 11.7097C111.748 11.8613 112.024 12.055 112.209 12.2908C112.402 12.5266 112.498 12.8466 112.498 13.2508C112.498 13.9077 112.259 14.4214 111.781 14.792C111.303 15.1625 110.662 15.3478 109.857 15.3478Z" fill="#00264D"/>
<path d="M116.82 15.3478C116.099 15.3478 115.479 15.192 114.959 14.8804C114.448 14.5604 114.053 14.1393 113.777 13.6172C113.5 13.095 113.362 12.5308 113.362 11.9245C113.362 11.3097 113.5 10.7413 113.777 10.2191C114.062 9.697 114.46 9.28014 114.972 8.96855C115.491 8.64853 116.108 8.48853 116.82 8.48853C117.533 8.48853 118.145 8.64853 118.657 8.96855C119.176 9.28014 119.575 9.697 119.851 10.2191C120.128 10.7413 120.266 11.3097 120.266 11.9245C120.266 12.5308 120.128 13.095 119.851 13.6172C119.575 14.1393 119.176 14.5604 118.657 14.8804C118.145 15.192 117.533 15.3478 116.82 15.3478ZM115.097 11.9245C115.097 12.3118 115.173 12.6571 115.324 12.9603C115.475 13.255 115.68 13.4866 115.94 13.6551C116.2 13.8235 116.493 13.9077 116.82 13.9077C117.139 13.9077 117.428 13.8235 117.688 13.6551C117.948 13.4782 118.154 13.2424 118.304 12.9477C118.464 12.6445 118.543 12.2992 118.543 11.9118C118.543 11.5329 118.464 11.196 118.304 10.9013C118.154 10.5981 117.948 10.3623 117.688 10.1939C117.428 10.017 117.139 9.92859 116.82 9.92859C116.493 9.92859 116.2 10.017 115.94 10.1939C115.68 10.3623 115.475 10.5981 115.324 10.9013C115.173 11.196 115.097 11.5371 115.097 11.9245Z" fill="#00264D"/>
<path d="M127.661 15.2214H125.976V11.5076C125.976 10.9939 125.875 10.6107 125.674 10.3581C125.481 10.1054 125.213 9.97912 124.869 9.97912C124.66 9.97912 124.442 10.0381 124.215 10.156C123.997 10.2739 123.796 10.4381 123.612 10.6486C123.436 10.8507 123.306 11.0865 123.222 11.356V15.2214H121.536V6H123.222V9.82753C123.465 9.40646 123.796 9.07803 124.215 8.84223C124.635 8.60643 125.092 8.48853 125.586 8.48853C126.148 8.48853 126.58 8.61485 126.882 8.86749C127.183 9.12013 127.389 9.44436 127.498 9.84016C127.607 10.236 127.661 10.6528 127.661 11.0907V15.2214Z" fill="#00264D"/>
<path d="M128.806 13.2635C128.806 12.834 128.924 12.4592 129.159 12.1392C129.402 11.8108 129.737 11.5581 130.165 11.3813C130.592 11.2044 131.083 11.116 131.636 11.116C131.913 11.116 132.194 11.1413 132.479 11.1918C132.764 11.2339 133.011 11.2971 133.221 11.3813V11.0276C133.221 10.6065 133.095 10.2823 132.844 10.0549C132.601 9.82753 132.236 9.71384 131.749 9.71384C131.389 9.71384 131.045 9.777 130.718 9.90332C130.391 10.0296 130.047 10.2149 129.687 10.4591L129.146 9.34751C129.582 9.06118 130.026 8.84644 130.479 8.70327C130.94 8.56011 131.422 8.48853 131.926 8.48853C132.865 8.48853 133.594 8.72433 134.114 9.19593C134.642 9.66752 134.906 10.3412 134.906 11.2171V13.3266C134.906 13.5119 134.936 13.6424 134.994 13.7182C135.053 13.7856 135.158 13.8277 135.309 13.8445V15.2214C135.158 15.2551 135.019 15.2762 134.894 15.2846C134.776 15.3015 134.676 15.3099 134.592 15.3099C134.256 15.3099 134.001 15.2341 133.825 15.0825C133.649 14.9309 133.544 14.7456 133.51 14.5267L133.473 14.1856C133.179 14.5646 132.819 14.8551 132.391 15.0572C131.972 15.2509 131.54 15.3478 131.095 15.3478C130.651 15.3478 130.257 15.2593 129.913 15.0825C129.569 14.8972 129.297 14.6488 129.096 14.3372C128.903 14.0172 128.806 13.6593 128.806 13.2635ZM132.907 13.6045C133.116 13.4024 133.221 13.2087 133.221 13.0235V12.354C132.785 12.1771 132.345 12.0887 131.9 12.0887C131.456 12.0887 131.095 12.1855 130.819 12.3792C130.542 12.5645 130.404 12.8129 130.404 13.1245C130.404 13.3772 130.504 13.6045 130.706 13.8066C130.907 14.0088 131.196 14.1098 131.573 14.1098C131.825 14.1098 132.068 14.0635 132.303 13.9709C132.546 13.8782 132.747 13.7561 132.907 13.6045Z" fill="#00264D"/>
<path d="M139.041 15.3478C138.479 15.3478 137.943 15.2551 137.431 15.0699C136.92 14.8846 136.479 14.6109 136.11 14.2488L136.714 13.1498C137.108 13.4698 137.494 13.7056 137.871 13.8572C138.249 14.0088 138.618 14.0846 138.978 14.0846C139.305 14.0846 139.565 14.0256 139.758 13.9077C139.959 13.7898 140.06 13.613 140.06 13.3772C140.06 13.1329 139.938 12.9687 139.695 12.8845C139.452 12.7919 139.112 12.6782 138.676 12.5434C138.19 12.3919 137.783 12.2361 137.456 12.076C137.129 11.916 136.882 11.7223 136.714 11.495C136.555 11.2676 136.475 10.9728 136.475 10.6107C136.475 9.96227 136.718 9.44436 137.205 9.05697C137.691 8.66959 138.337 8.47589 139.142 8.47589C139.611 8.47589 140.055 8.55169 140.475 8.70327C140.894 8.84644 141.275 9.08224 141.619 9.41067L140.94 10.4844C140.294 9.97912 139.67 9.72647 139.066 9.72647C138.798 9.72647 138.559 9.777 138.349 9.87806C138.148 9.97912 138.047 10.156 138.047 10.4086C138.047 10.6444 138.144 10.8128 138.337 10.9139C138.538 11.015 138.84 11.1244 139.242 11.2423C139.762 11.4023 140.202 11.5581 140.563 11.7097C140.932 11.8613 141.208 12.055 141.393 12.2908C141.586 12.5266 141.682 12.8466 141.682 13.2508C141.682 13.9077 141.443 14.4214 140.965 14.792C140.487 15.1625 139.846 15.3478 139.041 15.3478Z" fill="#00264D"/>
<path d="M142.961 7.68007V6H144.646V7.68007H142.961ZM142.961 15.2214V8.60222H144.646V15.2214H142.961Z" fill="#00264D"/>
<path d="M145.896 11.9118C145.896 11.2802 146.022 10.7034 146.274 10.1812C146.525 9.6591 146.873 9.24645 147.318 8.94328C147.762 8.64011 148.269 8.48853 148.839 8.48853C149.326 8.48853 149.762 8.61064 150.147 8.85486C150.541 9.09066 150.847 9.39383 151.065 9.76437V6H152.751V13.3266C152.751 13.5119 152.78 13.6424 152.839 13.7182C152.898 13.7856 152.998 13.8277 153.141 13.8445V15.2214C152.839 15.2804 152.6 15.3099 152.424 15.3099C152.122 15.3099 151.87 15.2341 151.669 15.0825C151.476 14.9309 151.367 14.733 151.342 14.4888L151.317 14.0719C151.074 14.4846 150.743 14.8004 150.323 15.0193C149.913 15.2383 149.481 15.3478 149.028 15.3478C148.416 15.3478 147.875 15.1962 147.406 14.893C146.936 14.5814 146.567 14.1688 146.299 13.6551C146.03 13.1329 145.896 12.5519 145.896 11.9118ZM151.065 12.7961V11.2171C150.931 10.8465 150.701 10.5391 150.374 10.2949C150.047 10.0507 149.711 9.92859 149.368 9.92859C149.024 9.92859 148.722 10.0254 148.462 10.2191C148.202 10.4044 148.001 10.6528 147.858 10.9644C147.716 11.2676 147.645 11.596 147.645 11.9497C147.645 12.3118 147.724 12.6445 147.884 12.9477C148.043 13.2424 148.257 13.4782 148.525 13.6551C148.802 13.8235 149.116 13.9077 149.468 13.9077C149.787 13.9077 150.101 13.8024 150.411 13.5919C150.73 13.3814 150.948 13.1161 151.065 12.7961Z" fill="#00264D"/>
<path d="M154.085 13.2635C154.085 12.834 154.202 12.4592 154.437 12.1392C154.68 11.8108 155.015 11.5581 155.443 11.3813C155.871 11.2044 156.361 11.116 156.915 11.116C157.191 11.116 157.472 11.1413 157.757 11.1918C158.042 11.2339 158.29 11.2971 158.499 11.3813V11.0276C158.499 10.6065 158.373 10.2823 158.122 10.0549C157.879 9.82753 157.514 9.71384 157.028 9.71384C156.667 9.71384 156.323 9.777 155.996 9.90332C155.669 10.0296 155.326 10.2149 154.965 10.4591L154.424 9.34751C154.86 9.06118 155.305 8.84644 155.757 8.70327C156.219 8.56011 156.701 8.48853 157.204 8.48853C158.143 8.48853 158.872 8.72433 159.392 9.19593C159.92 9.66752 160.185 10.3412 160.185 11.2171V13.3266C160.185 13.5119 160.214 13.6424 160.273 13.7182C160.331 13.7856 160.436 13.8277 160.587 13.8445V15.2214C160.436 15.2551 160.298 15.2762 160.172 15.2846C160.055 15.3015 159.954 15.3099 159.87 15.3099C159.535 15.3099 159.279 15.2341 159.103 15.0825C158.927 14.9309 158.822 14.7456 158.788 14.5267L158.751 14.1856C158.457 14.5646 158.097 14.8551 157.669 15.0572C157.25 15.2509 156.818 15.3478 156.374 15.3478C155.929 15.3478 155.535 15.2593 155.191 15.0825C154.848 14.8972 154.575 14.6488 154.374 14.3372C154.181 14.0172 154.085 13.6593 154.085 13.2635ZM158.185 13.6045C158.394 13.4024 158.499 13.2087 158.499 13.0235V12.354C158.063 12.1771 157.623 12.0887 157.179 12.0887C156.734 12.0887 156.374 12.1855 156.097 12.3792C155.82 12.5645 155.682 12.8129 155.682 13.1245C155.682 13.3772 155.783 13.6045 155.984 13.8066C156.185 14.0088 156.474 14.1098 156.852 14.1098C157.103 14.1098 157.346 14.0635 157.581 13.9709C157.824 13.8782 158.025 13.7561 158.185 13.6045Z" fill="#00264D"/>
<path d="M164.47 15.2593C163.883 15.2593 163.368 15.1078 162.923 14.8046C162.479 14.5014 162.131 14.0972 161.879 13.5919C161.628 13.0782 161.502 12.5182 161.502 11.9118C161.502 11.2718 161.632 10.6949 161.892 10.1812C162.152 9.6591 162.512 9.24645 162.973 8.94328C163.435 8.64011 163.967 8.48853 164.571 8.48853C165.082 8.48853 165.531 8.60643 165.916 8.84223C166.302 9.0696 166.621 9.37699 166.872 9.76437V8.60222H168.344V14.9056C168.344 15.5625 168.185 16.1225 167.866 16.5857C167.556 17.0573 167.124 17.4152 166.57 17.6594C166.017 17.9121 165.388 18.0384 164.684 18.0384C163.963 18.0384 163.355 17.9163 162.86 17.6721C162.374 17.4363 161.955 17.0994 161.603 16.6615L162.521 15.7646C162.772 16.0762 163.087 16.3204 163.464 16.4973C163.85 16.6741 164.256 16.7626 164.684 16.7626C165.036 16.7626 165.359 16.6952 165.652 16.5605C165.954 16.4341 166.197 16.232 166.382 15.9541C166.566 15.6846 166.658 15.3351 166.658 14.9056V14.0719C166.44 14.4509 166.13 14.7456 165.728 14.9562C165.334 15.1583 164.914 15.2593 164.47 15.2593ZM165.036 13.9077C165.405 13.9077 165.736 13.7982 166.03 13.5793C166.331 13.3603 166.541 13.0993 166.658 12.7961V11.2171C166.508 10.8297 166.269 10.5181 165.942 10.2823C165.623 10.0465 165.288 9.92859 164.935 9.92859C164.592 9.92859 164.29 10.0254 164.03 10.2191C163.778 10.4128 163.581 10.6655 163.439 10.9771C163.296 11.2802 163.225 11.6087 163.225 11.9624C163.225 12.3245 163.305 12.6529 163.464 12.9477C163.623 13.2424 163.837 13.4782 164.105 13.6551C164.382 13.8235 164.692 13.9077 165.036 13.9077Z" fill="#00264D"/>
<path d="M169.995 7.68007V6H171.681V7.68007H169.995ZM169.995 15.2214V8.60222H171.681V15.2214H169.995Z" fill="#00264D"/>
<path d="M58 20.8261H59.6853V27.9254C59.6853 28.237 59.7356 28.4433 59.8362 28.5443C59.9369 28.6454 60.0752 28.6959 60.2513 28.6959C60.3854 28.6959 60.5238 28.6791 60.6663 28.6454C60.8089 28.6117 60.9346 28.5696 61.0436 28.5191L61.27 29.8076C61.0436 29.917 60.7795 30.0012 60.4777 30.0602C60.1758 30.1191 59.9033 30.1486 59.6602 30.1486C59.1319 30.1486 58.7211 30.0097 58.4276 29.7318C58.1425 29.4454 58 29.0412 58 28.5191V20.8261Z" fill="#00264D"/>
<path d="M65.1803 30.1739C64.4592 30.1739 63.8388 30.0181 63.3189 29.7065C62.8075 29.3865 62.4134 28.9654 62.1367 28.4433C61.86 27.9212 61.7217 27.3569 61.7217 26.7506C61.7217 26.1358 61.86 25.5674 62.1367 25.0452C62.4218 24.5231 62.82 24.1063 63.3315 23.7947C63.8514 23.4746 64.4676 23.3146 65.1803 23.3146C65.893 23.3146 66.5051 23.4746 67.0166 23.7947C67.5364 24.1063 67.9347 24.5231 68.2114 25.0452C68.4881 25.5674 68.6264 26.1358 68.6264 26.7506C68.6264 27.3569 68.4881 27.9212 68.2114 28.4433C67.9347 28.9654 67.5364 29.3865 67.0166 29.7065C66.5051 30.0181 65.893 30.1739 65.1803 30.1739ZM63.4573 26.7506C63.4573 27.138 63.5327 27.4832 63.6837 27.7864C63.8346 28.0812 64.04 28.3128 64.2999 28.4812C64.5599 28.6496 64.8533 28.7338 65.1803 28.7338C65.4989 28.7338 65.7882 28.6496 66.0481 28.4812C66.3081 28.3043 66.5135 28.0685 66.6644 27.7738C66.8237 27.4706 66.9034 27.1253 66.9034 26.7379C66.9034 26.359 66.8237 26.0221 66.6644 25.7274C66.5135 25.4242 66.3081 25.1884 66.0481 25.02C65.7882 24.8431 65.4989 24.7547 65.1803 24.7547C64.8533 24.7547 64.5599 24.8431 64.2999 25.02C64.04 25.1884 63.8346 25.4242 63.6837 25.7274C63.5327 26.0221 63.4573 26.3632 63.4573 26.7506Z" fill="#00264D"/>
<path d="M69.7891 31.336C70.0993 31.4203 70.3508 31.4624 70.5437 31.4624C70.7701 31.4624 70.9503 31.3655 71.0845 31.1718C71.227 30.9866 71.3863 30.6118 71.5624 30.0476L68.959 23.4283H70.7072L72.4805 28.317L74.0401 23.4283H75.6499L72.883 31.3613C72.7321 31.8161 72.4596 32.1908 72.0655 32.4856C71.6798 32.7887 71.2019 32.9403 70.6317 32.9403C70.355 32.9403 70.0741 32.894 69.7891 32.8014V31.336Z" fill="#00264D"/>
<path d="M76.698 22.5062V20.8261H78.3833V22.5062H76.698ZM76.698 30.0476V23.4283H78.3833V30.0476H76.698Z" fill="#00264D"/>
<path d="M86.161 30.0476H84.4757V26.3337C84.4757 25.82 84.3751 25.4368 84.1739 25.1842C83.981 24.9316 83.7127 24.8052 83.3689 24.8052C83.1593 24.8052 82.9413 24.8642 82.7149 24.9821C82.4969 25.1 82.2957 25.2642 82.1112 25.4747C81.9352 25.6769 81.8052 25.9126 81.7214 26.1821V30.0476H80.036V20.8261H81.7214V24.6536C81.9645 24.2326 82.2957 23.9041 82.7149 23.6683C83.1342 23.4325 83.5911 23.3146 84.0858 23.3146C84.6476 23.3146 85.0794 23.441 85.3813 23.6936C85.6831 23.9463 85.8885 24.2705 85.9975 24.6663C86.1065 25.0621 86.161 25.4789 86.161 25.9169V30.0476Z" fill="#00264D"/>
<path d="M87.3061 28.0896C87.3061 27.6601 87.4235 27.2853 87.6582 26.9653C87.9014 26.6369 88.2368 26.3842 88.6644 26.2074C89.092 26.0305 89.5825 25.9421 90.1359 25.9421C90.4126 25.9421 90.6935 25.9674 90.9786 26.0179C91.2636 26.06 91.511 26.1232 91.7206 26.2074V25.8537C91.7206 25.4326 91.5948 25.1084 91.3433 24.881C91.1001 24.6536 90.7354 24.54 90.2491 24.54C89.8886 24.54 89.5448 24.6031 89.2178 24.7294C88.8908 24.8558 88.547 25.041 88.1865 25.2853L87.6457 24.1736C88.0817 23.8873 88.526 23.6726 88.9788 23.5294C89.44 23.3862 89.9221 23.3146 90.4252 23.3146C91.3643 23.3146 92.0937 23.5504 92.6136 24.022C93.1418 24.4936 93.4059 25.1674 93.4059 26.0432V28.1527C93.4059 28.338 93.4353 28.4685 93.494 28.5443C93.5527 28.6117 93.6575 28.6538 93.8084 28.6707V30.0476C93.6575 30.0813 93.5191 30.1023 93.3933 30.1107C93.276 30.1276 93.1753 30.136 93.0915 30.136C92.7561 30.136 92.5004 30.0602 92.3243 29.9086C92.1482 29.757 92.0434 29.5718 92.0099 29.3528L91.9721 29.0117C91.6787 29.3907 91.3181 29.6812 90.8905 29.8833C90.4713 30.077 90.0395 30.1739 89.5951 30.1739C89.1507 30.1739 88.7566 30.0855 88.4129 29.9086C88.0691 29.7233 87.7966 29.4749 87.5953 29.1633C87.4025 28.8433 87.3061 28.4854 87.3061 28.0896ZM91.4062 28.4307C91.6158 28.2285 91.7206 28.0348 91.7206 27.8496V27.1801C91.2846 27.0032 90.8444 26.9148 90.4 26.9148C89.9556 26.9148 89.5951 27.0116 89.3184 27.2053C89.0417 27.3906 88.9034 27.639 88.9034 27.9506C88.9034 28.2033 89.004 28.4307 89.2052 28.6328C89.4064 28.8349 89.6957 28.9359 90.073 28.9359C90.3246 28.9359 90.5677 28.8896 90.8025 28.797C91.0456 28.7043 91.2469 28.5822 91.4062 28.4307Z" fill="#00264D"/>
<path d="M95.1006 20.8261H96.7859V27.9254C96.7859 28.237 96.8362 28.4433 96.9369 28.5443C97.0375 28.6454 97.1758 28.6959 97.3519 28.6959C97.4861 28.6959 97.6244 28.6791 97.7669 28.6454C97.9095 28.6117 98.0352 28.5696 98.1442 28.5191L98.3706 29.8076C98.1442 29.917 97.8801 30.0012 97.5783 30.0602C97.2764 30.1191 97.0039 30.1486 96.7608 30.1486C96.2325 30.1486 95.8217 30.0097 95.5282 29.7318C95.2432 29.4454 95.1006 29.0412 95.1006 28.5191V20.8261Z" fill="#00264D"/>
<path d="M98.7845 28.0896C98.7845 27.6601 98.9019 27.2853 99.1367 26.9653C99.3798 26.6369 99.7152 26.3842 100.143 26.2074C100.57 26.0305 101.061 25.9421 101.614 25.9421C101.891 25.9421 102.172 25.9674 102.457 26.0179C102.742 26.06 102.989 26.1232 103.199 26.2074V25.8537C103.199 25.4326 103.073 25.1084 102.822 24.881C102.579 24.6536 102.214 24.54 101.728 24.54C101.367 24.54 101.023 24.6031 100.696 24.7294C100.369 24.8558 100.025 25.041 99.6649 25.2853L99.1241 24.1736C99.5601 23.8873 100.005 23.6726 100.457 23.5294C100.918 23.3862 101.401 23.3146 101.904 23.3146C102.843 23.3146 103.572 23.5504 104.092 24.022C104.62 24.4936 104.884 25.1674 104.884 26.0432V28.1527C104.884 28.338 104.914 28.4685 104.972 28.5443C105.031 28.6117 105.136 28.6538 105.287 28.6707V30.0476C105.136 30.0813 104.998 30.1023 104.872 30.1107C104.754 30.1276 104.654 30.136 104.57 30.136C104.235 30.136 103.979 30.0602 103.803 29.9086C103.627 29.757 103.522 29.5718 103.488 29.3528L103.451 29.0117C103.157 29.3907 102.797 29.6812 102.369 29.8833C101.95 30.077 101.518 30.1739 101.074 30.1739C100.629 30.1739 100.235 30.0855 99.8913 29.9086C99.5475 29.7233 99.275 29.4749 99.0738 29.1633C98.881 28.8433 98.7845 28.4854 98.7845 28.0896ZM102.885 28.4307C103.094 28.2285 103.199 28.0348 103.199 27.8496V27.1801C102.763 27.0032 102.323 26.9148 101.878 26.9148C101.434 26.9148 101.074 27.0116 100.797 27.2053C100.52 27.3906 100.382 27.639 100.382 27.9506C100.382 28.2033 100.482 28.4307 100.684 28.6328C100.885 28.8349 101.174 28.9359 101.551 28.9359C101.803 28.9359 102.046 28.8896 102.281 28.797C102.524 28.7043 102.725 28.5822 102.885 28.4307Z" fill="#00264D"/>
<path d="M110.516 24.8937C110.004 24.8937 109.547 24.9947 109.145 25.1968C108.742 25.3905 108.453 25.6726 108.277 26.0432V30.0476H106.592V23.4283H108.139V24.8431C108.365 24.3884 108.658 24.0305 109.019 23.7694C109.388 23.5083 109.774 23.3652 110.176 23.3399C110.352 23.3399 110.465 23.3441 110.516 23.3525V24.8937Z" fill="#00264D"/>
<path d="M117.713 30.0476H116.027V26.3337C116.027 25.8032 115.935 25.4158 115.751 25.1716C115.566 24.9273 115.311 24.8052 114.984 24.8052C114.757 24.8052 114.527 24.8642 114.292 24.9821C114.065 25.1 113.86 25.2642 113.676 25.4747C113.491 25.6769 113.357 25.9126 113.273 26.1821V30.0476H111.588V23.4283H113.11V24.6536C113.353 24.241 113.705 23.9168 114.166 23.681C114.627 23.4368 115.147 23.3146 115.726 23.3146C116.136 23.3146 116.472 23.3904 116.732 23.542C116.992 23.6852 117.193 23.8831 117.335 24.1357C117.478 24.38 117.574 24.6579 117.625 24.9695C117.683 25.281 117.713 25.5968 117.713 25.9169V30.0476Z" fill="#00264D"/>
<path d="M119.311 22.5062V20.8261H120.996V22.5062H119.311ZM119.311 30.0476V23.4283H120.996V30.0476H119.311Z" fill="#00264D"/>
<path d="M129.55 30.1739C129.047 30.1739 128.599 30.0602 128.205 29.8328C127.811 29.6054 127.5 29.2938 127.274 28.898V30.0476H125.802V20.8261H127.488V24.5905C127.723 24.1947 128.029 23.8831 128.406 23.6557C128.792 23.4283 129.24 23.3146 129.752 23.3146C130.322 23.3146 130.821 23.4746 131.248 23.7947C131.684 24.1063 132.024 24.5231 132.267 25.0452C132.51 25.5674 132.632 26.14 132.632 26.7632C132.632 27.4032 132.498 27.9801 132.229 28.4938C131.961 29.0075 131.592 29.416 131.123 29.7191C130.661 30.0223 130.137 30.1739 129.55 30.1739ZM129.085 28.7338C129.446 28.7338 129.76 28.6454 130.028 28.4685C130.305 28.2917 130.519 28.0559 130.67 27.7612C130.829 27.458 130.909 27.1295 130.909 26.7758C130.909 26.4137 130.833 26.0811 130.682 25.7779C130.54 25.4663 130.339 25.2179 130.079 25.0326C129.819 24.8473 129.521 24.7547 129.186 24.7547C128.817 24.7547 128.477 24.881 128.167 25.1337C127.865 25.3779 127.639 25.6811 127.488 26.0432V27.6222C127.597 27.9506 127.811 28.2201 128.129 28.4307C128.448 28.6328 128.766 28.7338 129.085 28.7338Z" fill="#00264D"/>
<path d="M136.95 30.1739C136.229 30.1739 135.608 30.0181 135.088 29.7065C134.577 29.3865 134.183 28.9654 133.906 28.4433C133.629 27.9212 133.491 27.3569 133.491 26.7506C133.491 26.1358 133.629 25.5674 133.906 25.0452C134.191 24.5231 134.589 24.1063 135.101 23.7947C135.621 23.4746 136.237 23.3146 136.95 23.3146C137.662 23.3146 138.274 23.4746 138.786 23.7947C139.306 24.1063 139.704 24.5231 139.981 25.0452C140.257 25.5674 140.396 26.1358 140.396 26.7506C140.396 27.3569 140.257 27.9212 139.981 28.4433C139.704 28.9654 139.306 29.3865 138.786 29.7065C138.274 30.0181 137.662 30.1739 136.95 30.1739ZM135.227 26.7506C135.227 27.138 135.302 27.4832 135.453 27.7864C135.604 28.0812 135.809 28.3128 136.069 28.4812C136.329 28.6496 136.623 28.7338 136.95 28.7338C137.268 28.7338 137.558 28.6496 137.817 28.4812C138.077 28.3043 138.283 28.0685 138.434 27.7738C138.593 27.4706 138.673 27.1253 138.673 26.7379C138.673 26.359 138.593 26.0221 138.434 25.7274C138.283 25.4242 138.077 25.1884 137.817 25.02C137.558 24.8431 137.268 24.7547 136.95 24.7547C136.623 24.7547 136.329 24.8431 136.069 25.02C135.809 25.1884 135.604 25.4242 135.453 25.7274C135.302 26.0221 135.227 26.3632 135.227 26.7506Z" fill="#00264D"/>
<path d="M144.093 30.1739C143.531 30.1739 142.995 30.0812 142.483 29.896C141.972 29.7107 141.532 29.437 141.163 29.0749L141.766 27.9759C142.16 28.2959 142.546 28.5317 142.923 28.6833C143.301 28.8349 143.67 28.9107 144.03 28.9107C144.357 28.9107 144.617 28.8517 144.81 28.7338C145.011 28.6159 145.112 28.4391 145.112 28.2033C145.112 27.9591 144.99 27.7948 144.747 27.7106C144.504 27.618 144.164 27.5043 143.728 27.3696C143.242 27.218 142.835 27.0622 142.508 26.9022C142.181 26.7422 141.934 26.5485 141.766 26.3211C141.607 26.0937 141.527 25.799 141.527 25.4368C141.527 24.7884 141.771 24.2705 142.257 23.8831C142.743 23.4957 143.389 23.302 144.194 23.302C144.663 23.302 145.108 23.3778 145.527 23.5294C145.946 23.6726 146.328 23.9084 146.671 24.2368L145.992 25.3105C145.347 24.8052 144.722 24.5526 144.118 24.5526C143.85 24.5526 143.611 24.6031 143.401 24.7042C143.2 24.8052 143.099 24.9821 143.099 25.2347C143.099 25.4705 143.196 25.639 143.389 25.74C143.59 25.8411 143.892 25.9505 144.294 26.0684C144.814 26.2285 145.254 26.3842 145.615 26.5358C145.984 26.6874 146.26 26.8811 146.445 27.1169C146.638 27.3527 146.734 27.6727 146.734 28.077C146.734 28.7338 146.495 29.2475 146.017 29.6181C145.539 29.9886 144.898 30.1739 144.093 30.1739Z" fill="#00264D"/>
<path d="M154.138 30.0476H152.453V26.3337C152.453 25.82 152.352 25.4368 152.151 25.1842C151.958 24.9316 151.69 24.8052 151.346 24.8052C151.136 24.8052 150.918 24.8642 150.692 24.9821C150.474 25.1 150.273 25.2642 150.088 25.4747C149.912 25.6769 149.782 25.9126 149.698 26.1821V30.0476H148.013V20.8261H149.698V24.6536C149.941 24.2326 150.273 23.9041 150.692 23.6683C151.111 23.4325 151.568 23.3146 152.063 23.3146C152.624 23.3146 153.056 23.441 153.358 23.6936C153.66 23.9463 153.865 24.2705 153.974 24.6663C154.083 25.0621 154.138 25.4789 154.138 25.9169V30.0476Z" fill="#00264D"/>
<path d="M158.226 30.1739C157.664 30.1739 157.165 30.0181 156.729 29.7065C156.293 29.3949 155.954 28.978 155.711 28.4559C155.467 27.9338 155.346 27.3569 155.346 26.7253C155.346 26.0937 155.48 25.5211 155.748 25.0073C156.017 24.4852 156.381 24.0726 156.842 23.7694C157.312 23.4662 157.84 23.3146 158.427 23.3146C158.93 23.3146 159.375 23.4325 159.76 23.6683C160.146 23.8957 160.46 24.1989 160.704 24.5779V23.4283H162.175V32.7382H160.49V28.8854C159.987 29.7444 159.232 30.1739 158.226 30.1739ZM158.855 28.7338C159.215 28.7338 159.53 28.6328 159.798 28.4307C160.075 28.2285 160.305 27.9675 160.49 27.6475V26.0811C160.431 25.8284 160.314 25.6053 160.138 25.4116C159.962 25.2095 159.756 25.0495 159.521 24.9316C159.295 24.8137 159.064 24.7547 158.83 24.7547C158.486 24.7547 158.18 24.8516 157.912 25.0452C157.652 25.2305 157.446 25.4789 157.295 25.7905C157.144 26.0937 157.069 26.4221 157.069 26.7758C157.069 27.138 157.144 27.4706 157.295 27.7738C157.446 28.0685 157.656 28.3043 157.924 28.4812C158.192 28.6496 158.503 28.7338 158.855 28.7338Z" fill="#00264D"/>
<path d="M163.386 28.0896C163.386 27.6601 163.504 27.2853 163.739 26.9653C163.982 26.6369 164.317 26.3842 164.745 26.2074C165.172 26.0305 165.663 25.9421 166.216 25.9421C166.493 25.9421 166.774 25.9674 167.059 26.0179C167.344 26.06 167.591 26.1232 167.801 26.2074V25.8537C167.801 25.4326 167.675 25.1084 167.424 24.881C167.181 24.6536 166.816 24.54 166.33 24.54C165.969 24.54 165.625 24.6031 165.298 24.7294C164.971 24.8558 164.627 25.041 164.267 25.2853L163.726 24.1736C164.162 23.8873 164.606 23.6726 165.059 23.5294C165.52 23.3862 166.003 23.3146 166.506 23.3146C167.445 23.3146 168.174 23.5504 168.694 24.022C169.222 24.4936 169.486 25.1674 169.486 26.0432V28.1527C169.486 28.338 169.516 28.4685 169.574 28.5443C169.633 28.6117 169.738 28.6538 169.889 28.6707V30.0476C169.738 30.0813 169.6 30.1023 169.474 30.1107C169.356 30.1276 169.256 30.136 169.172 30.136C168.837 30.136 168.581 30.0602 168.405 29.9086C168.229 29.757 168.124 29.5718 168.09 29.3528L168.053 29.0117C167.759 29.3907 167.399 29.6812 166.971 29.8833C166.552 30.077 166.12 30.1739 165.676 30.1739C165.231 30.1739 164.837 30.0855 164.493 29.9086C164.149 29.7233 163.877 29.4749 163.676 29.1633C163.483 28.8433 163.386 28.4854 163.386 28.0896ZM167.487 28.4307C167.696 28.2285 167.801 28.0348 167.801 27.8496V27.1801C167.365 27.0032 166.925 26.9148 166.48 26.9148C166.036 26.9148 165.675 27.0116 165.399 27.2053C165.122 27.3906 164.984 27.639 164.984 27.9506C164.984 28.2033 165.084 28.4307 165.286 28.6328C165.487 28.8349 165.776 28.9359 166.153 28.9359C166.405 28.9359 166.648 28.8896 166.883 28.797C167.126 28.7043 167.327 28.5822 167.487 28.4307Z" fill="#00264D"/>
<path d="M175.118 24.8937C174.606 24.8937 174.149 24.9947 173.747 25.1968C173.344 25.3905 173.055 25.6726 172.879 26.0432V30.0476H171.194V23.4283H172.741V24.8431C172.967 24.3884 173.26 24.0305 173.621 23.7694C173.99 23.5083 174.376 23.3652 174.778 23.3399C174.954 23.3399 175.067 23.3441 175.118 23.3525V24.8937Z" fill="#00264D"/>
<path d="M176.19 22.5062V20.8261H177.875V22.5062H176.19ZM176.19 30.0476V23.4283H177.875V30.0476H176.19Z" fill="#00264D"/>
<path d="M181.955 30.1739C181.393 30.1739 180.857 30.0812 180.345 29.896C179.834 29.7107 179.394 29.437 179.025 29.0749L179.628 27.9759C180.023 28.2959 180.408 28.5317 180.785 28.6833C181.163 28.8349 181.532 28.9107 181.892 28.9107C182.219 28.9107 182.479 28.8517 182.672 28.7338C182.873 28.6159 182.974 28.4391 182.974 28.2033C182.974 27.9591 182.852 27.7948 182.609 27.7106C182.366 27.618 182.026 27.5043 181.59 27.3696C181.104 27.218 180.697 27.0622 180.37 26.9022C180.043 26.7422 179.796 26.5485 179.628 26.3211C179.469 26.0937 179.389 25.799 179.389 25.4368C179.389 24.7884 179.633 24.2705 180.119 23.8831C180.605 23.4957 181.251 23.302 182.056 23.302C182.525 23.302 182.97 23.3778 183.389 23.5294C183.808 23.6726 184.19 23.9084 184.533 24.2368L183.854 25.3105C183.209 24.8052 182.584 24.5526 181.98 24.5526C181.712 24.5526 181.473 24.6031 181.263 24.7042C181.062 24.8052 180.962 24.9821 180.962 25.2347C180.962 25.4705 181.058 25.639 181.251 25.74C181.452 25.8411 181.754 25.9505 182.156 26.0684C182.676 26.2285 183.116 26.3842 183.477 26.5358C183.846 26.6874 184.123 26.8811 184.307 27.1169C184.5 27.3527 184.596 27.6727 184.596 28.077C184.596 28.7338 184.357 29.2475 183.879 29.6181C183.402 29.9886 182.76 30.1739 181.955 30.1739Z" fill="#00264D"/>
<path d="M192 30.0476H190.315V26.3337C190.315 25.82 190.214 25.4368 190.013 25.1842C189.82 24.9316 189.552 24.8052 189.208 24.8052C188.998 24.8052 188.78 24.8642 188.554 24.9821C188.336 25.1 188.135 25.2642 187.95 25.4747C187.774 25.6769 187.644 25.9126 187.56 26.1821V30.0476H185.875V20.8261H187.56V24.6536C187.803 24.2326 188.135 23.9041 188.554 23.6683C188.973 23.4325 189.43 23.3146 189.925 23.3146C190.487 23.3146 190.918 23.441 191.22 23.6936C191.522 23.9463 191.728 24.2705 191.837 24.6663C191.946 25.0621 192 25.4789 192 25.9169V30.0476Z" fill="#00264D"/>
<path d="M68.2503 44.8737H66.5649V41.1598C66.5649 40.6377 66.4727 40.2545 66.2882 40.0103C66.1122 39.7577 65.8648 39.6314 65.5462 39.6314C65.2108 39.6314 64.8964 39.7619 64.6029 40.0229C64.3095 40.2756 64.0998 40.6082 63.9741 41.0209V44.8737H62.2888V41.1598C62.2888 40.6293 62.1965 40.2419 62.0121 39.9977C61.836 39.7535 61.5886 39.6314 61.27 39.6314C60.943 39.6314 60.6286 39.7577 60.3267 40.0103C60.0333 40.263 59.8237 40.5956 59.6979 41.0083V44.8737H58.0126V38.2545H59.5344V39.4798C59.7776 39.0503 60.1087 38.7218 60.528 38.4945C60.9556 38.2587 61.4419 38.1408 61.9869 38.1408C62.5319 38.1408 62.9553 38.2755 63.2572 38.545C63.5674 38.8145 63.7645 39.1471 63.8483 39.5429C64.1082 39.0882 64.4478 38.7429 64.867 38.5071C65.2863 38.2629 65.7558 38.1408 66.2757 38.1408C66.6865 38.1408 67.0177 38.2166 67.2693 38.3681C67.5292 38.5113 67.7304 38.7092 67.873 38.9618C68.0155 39.2061 68.1119 39.484 68.1622 39.7956C68.2209 40.1072 68.2503 40.423 68.2503 40.743V44.8737Z" fill="#00264D"/>
<path d="M69.3972 42.9157C69.3972 42.4862 69.5145 42.1115 69.7493 41.7914C69.9925 41.463 70.3279 41.2104 70.7555 41.0335C71.1831 40.8567 71.6736 40.7682 72.227 40.7682C72.5037 40.7682 72.7846 40.7935 73.0696 40.844C73.3547 40.8861 73.6021 40.9493 73.8117 41.0335V40.6798C73.8117 40.2587 73.6859 39.9345 73.4344 39.7071C73.1912 39.4798 72.8265 39.3661 72.3402 39.3661C71.9796 39.3661 71.6359 39.4292 71.3089 39.5556C70.9819 39.6819 70.6381 39.8671 70.2776 40.1114L69.7367 38.9997C70.1727 38.7134 70.6171 38.4987 71.0699 38.3555C71.5311 38.2123 72.0132 38.1408 72.5163 38.1408C73.4553 38.1408 74.1848 38.3766 74.7047 38.8482C75.2329 39.3198 75.497 39.9935 75.497 40.8693V42.9789C75.497 43.1641 75.5264 43.2947 75.585 43.3705C75.6437 43.4378 75.7486 43.4799 75.8995 43.4968V44.8737C75.7486 44.9074 75.6102 44.9284 75.4844 44.9368C75.367 44.9537 75.2664 44.9621 75.1826 44.9621C74.8472 44.9621 74.5915 44.8863 74.4154 44.7347C74.2393 44.5831 74.1345 44.3979 74.101 44.1789L74.0632 43.8378C73.7698 44.2168 73.4092 44.5073 72.9816 44.7095C72.5624 44.9032 72.1306 45 71.6862 45C71.2418 45 70.8477 44.9116 70.5039 44.7347C70.1602 44.5495 69.8877 44.301 69.6864 43.9894C69.4936 43.6694 69.3972 43.3115 69.3972 42.9157ZM73.4973 43.2568C73.7069 43.0547 73.8117 42.861 73.8117 42.6757V42.0062C73.3757 41.8293 72.9355 41.7409 72.4911 41.7409C72.0467 41.7409 71.6862 41.8378 71.4095 42.0315C71.1328 42.2167 70.9944 42.4652 70.9944 42.7767C70.9944 43.0294 71.0951 43.2568 71.2963 43.4589C71.4975 43.661 71.7868 43.7621 72.1641 43.7621C72.4156 43.7621 72.6588 43.7157 72.8936 43.6231C73.1367 43.5305 73.338 43.4084 73.4973 43.2568Z" fill="#00264D"/>
<path d="M81.1283 39.7198C80.6168 39.7198 80.1599 39.8208 79.7574 40.0229C79.3549 40.2166 79.0657 40.4988 78.8896 40.8693V44.8737H77.2043V38.2545H78.7512V39.6692C78.9776 39.2145 79.2711 38.8566 79.6316 38.5955C80.0006 38.3345 80.3863 38.1913 80.7887 38.166C80.9648 38.166 81.078 38.1702 81.1283 38.1787V39.7198Z" fill="#00264D"/>
<path d="M86.703 44.8737L84.7787 42.0188L83.8857 42.9031V44.8737H82.2004V35.6522H83.8857V41.2356L86.5395 38.2671H88.3254L85.8729 41.0714L88.5015 44.8737H86.703Z" fill="#00264D"/>
<path d="M88.8318 42.9157C88.8318 42.4862 88.9492 42.1115 89.1839 41.7914C89.4271 41.463 89.7625 41.2104 90.1901 41.0335C90.6177 40.8567 91.1082 40.7682 91.6616 40.7682C91.9383 40.7682 92.2192 40.7935 92.5043 40.844C92.7894 40.8861 93.0367 40.9493 93.2463 41.0335V40.6798C93.2463 40.2587 93.1205 39.9345 92.869 39.7071C92.6259 39.4798 92.2611 39.3661 91.7748 39.3661C91.4143 39.3661 91.0705 39.4292 90.7435 39.5556C90.4165 39.6819 90.0727 39.8671 89.7122 40.1114L89.1714 38.9997C89.6074 38.7134 90.0518 38.4987 90.5045 38.3555C90.9657 38.2123 91.4478 38.1408 91.9509 38.1408C92.89 38.1408 93.6194 38.3766 94.1393 38.8482C94.6675 39.3198 94.9316 39.9935 94.9316 40.8693V42.9789C94.9316 43.1641 94.961 43.2947 95.0197 43.3705C95.0784 43.4378 95.1832 43.4799 95.3341 43.4968V44.8737C95.1832 44.9074 95.0448 44.9284 94.9191 44.9368C94.8017 44.9537 94.7011 44.9621 94.6172 44.9621C94.2818 44.9621 94.0261 44.8863 93.85 44.7347C93.6739 44.5831 93.5691 44.3979 93.5356 44.1789L93.4979 43.8378C93.2044 44.2168 92.8439 44.5073 92.4162 44.7095C91.997 44.9032 91.5652 45 91.1208 45C90.6764 45 90.2823 44.9116 89.9386 44.7347C89.5948 44.5495 89.3223 44.301 89.1211 43.9894C88.9282 43.6694 88.8318 43.3115 88.8318 42.9157ZM92.9319 43.2568C93.1415 43.0547 93.2463 42.861 93.2463 42.6757V42.0062C92.8103 41.8293 92.3701 41.7409 91.9257 41.7409C91.4813 41.7409 91.1208 41.8378 90.8441 42.0315C90.5674 42.2167 90.4291 42.4652 90.4291 42.7767C90.4291 43.0294 90.5297 43.2568 90.7309 43.4589C90.9321 43.661 91.2214 43.7621 91.5987 43.7621C91.8503 43.7621 92.0934 43.7157 92.3282 43.6231C92.5714 43.5305 92.7726 43.4084 92.9319 43.2568Z" fill="#00264D"/>
<path d="M96.1987 43.8378L99.8335 39.4419H96.3496V38.2545H101.645V39.2903L98.035 43.6863H101.707V44.8737H96.1987V43.8378Z" fill="#00264D"/>
<path d="M102.974 37.3323V35.6522H104.659V37.3323H102.974ZM102.974 44.8737V38.2545H104.659V44.8737H102.974Z" fill="#00264D"/>
</svg>
