<svg width="24" height="24" viewBox="0 0 24 24" fill="none" xmlns="http://www.w3.org/2000/svg">
<path d="M0 14.7095V17.8836C0 19.1998 1.04516 20.1288 2.32258 20.1288H21.6774C22.9548 20.1288 24 19.1998 24 17.8836V14.7095H0Z" fill="#1EB53A"/>
<path d="M21.6774 3.87109H2.32258C1.04516 3.87109 0 4.80013 0 6.11626V9.29043H24V6.11626C24 4.80013 22.9548 3.87109 21.6774 3.87109Z" fill="#0099B5"/>
<path d="M24 9.29053H0V14.7099H24V9.29053Z" fill="white"/>
<path d="M24 8.90332H0V9.29041H24V8.90332Z" fill="#CE1126"/>
<path d="M24 14.7095H0V15.0966H24V14.7095Z" fill="#CE1126"/>
<path d="M3.63841 4.95473C3.561 4.95473 3.48358 4.91602 3.40615 4.91602C2.59326 4.91602 1.89648 5.57409 1.89648 6.4257C1.89648 7.27732 2.55455 7.93538 3.40615 7.93538C3.48358 7.93538 3.561 7.93538 3.63841 7.89667C2.94164 7.78054 2.3997 7.16119 2.3997 6.4257C2.3997 5.6515 2.94164 5.07086 3.63841 4.95473Z" fill="white"/>
<path d="M4.37378 7.50947L4.29636 7.31592L4.21894 7.50947H4.02539L4.18023 7.6643L4.14152 7.85786L4.29636 7.74172L4.48991 7.85786L4.41249 7.6643L4.60604 7.50947H4.37378Z" fill="white"/>
<path d="M5.57495 7.50947L5.49753 7.31592L5.42011 7.50947H5.22656L5.3814 7.6643L5.34269 7.85786L5.49753 7.74172L5.69108 7.85786L5.61366 7.6643L5.7685 7.50947H5.57495Z" fill="white"/>
<path d="M6.77417 7.50947L6.69675 7.31592L6.61932 7.50947H6.42578L6.58062 7.6643L6.5032 7.85786L6.69675 7.74172L6.89029 7.85786L6.81288 7.6643L6.96772 7.50947H6.77417Z" fill="white"/>
<path d="M7.97339 7.50947L7.89597 7.31592L7.81854 7.50947H7.625L7.77983 7.6643L7.70242 7.85786L7.89597 7.74172L8.08951 7.85786L8.01209 7.6643L8.16694 7.50947H7.97339Z" fill="white"/>
<path d="M9.17451 7.50947L9.09712 7.31592L9.01971 7.50947H8.82617L8.98097 7.6643L8.90357 7.85786L9.09712 7.74172L9.252 7.85786L9.21326 7.6643L9.36806 7.50947H9.17451Z" fill="white"/>
<path d="M5.49753 6.11621L5.45882 6.30975H5.22656L5.42011 6.4646L5.34269 6.65814L5.49753 6.54201L5.69108 6.65814L5.61366 6.4646L5.80721 6.30975H5.57495L5.49753 6.11621Z" fill="white"/>
<path d="M6.69675 6.11621L6.65804 6.30975H6.42578L6.61932 6.4646L6.54191 6.65814L6.69675 6.54201L6.89029 6.65814L6.81288 6.4646L7.00643 6.30975H6.77417L6.69675 6.11621Z" fill="white"/>
<path d="M7.89597 6.11621L7.85726 6.30975H7.625L7.81855 6.4646L7.74113 6.65814L7.89597 6.54201L8.08951 6.65814L8.01209 6.4646L8.20565 6.30975H7.97339L7.89597 6.11621Z" fill="white"/>
<path d="M9.17452 6.30975L9.09712 6.11621L9.05846 6.30975H8.82617L8.98097 6.4646L8.94231 6.65814L9.09712 6.54201L9.29066 6.65814L9.21326 6.4646L9.4068 6.30975H9.17452Z" fill="white"/>
<path d="M6.58027 5.26441L6.50284 5.45795L6.6964 5.34183L6.85124 5.45795L6.81252 5.26441L6.96736 5.10957H6.77381L6.6964 4.91602L6.61898 5.10957H6.38672L6.58027 5.26441Z" fill="white"/>
<path d="M7.77949 5.26441L7.70206 5.45795L7.89561 5.34183L8.05045 5.45795L8.01174 5.26441L8.16658 5.10957H7.97303L7.89561 4.91602L7.8182 5.10957H7.58594L7.77949 5.26441Z" fill="white"/>
<path d="M8.98065 5.26441L8.90317 5.45795L9.0968 5.34183L9.2516 5.45795L9.21285 5.26441L9.36774 5.10957H9.13545L9.0968 4.91602L9.01931 5.10957H8.78711L8.98065 5.26441Z" fill="white"/>
</svg>
